<svg width="42" height="35" viewBox="0 0 42 35" fill="none" xmlns="http://www.w3.org/2000/svg">
<g clip-path="url(#clip0_157_1623)">
<path d="M33.2656 17.5H36.9603" stroke="#F00010" stroke-width="1.5"/>
<path d="M5.03906 17.5H25.3894" stroke="#F00010" stroke-width="1.5"/>
<path d="M17.416 8.73358H36.9591" stroke="#F00010" stroke-width="1.5"/>
<path d="M5.03906 8.73358H9.55406" stroke="#F00010" stroke-width="1.5"/>
<path d="M13.4863 11.8453C15.6609 11.8453 17.4238 10.3762 17.4238 8.56406C17.4238 6.75187 15.6609 5.28281 13.4863 5.28281C11.3117 5.28281 9.54883 6.75187 9.54883 8.56406C9.54883 10.3762 11.3117 11.8453 13.4863 11.8453Z" stroke="#F00010" stroke-width="1.5"/>
<path d="M29.3281 20.7812C31.5027 20.7812 33.2656 19.3122 33.2656 17.5C33.2656 15.6878 31.5027 14.2188 29.3281 14.2188C27.1535 14.2188 25.3906 15.6878 25.3906 17.5C25.3906 19.3122 27.1535 20.7812 29.3281 20.7812Z" stroke="#F00010" stroke-width="1.5"/>
</g>
<defs>
<clipPath id="clip0_157_1623">
<rect width="42" height="35" fill="white"/>
</clipPath>
</defs>
</svg>
