<svg width="29" height="34" viewBox="0 0 29 34" fill="none" xmlns="http://www.w3.org/2000/svg">
<path d="M1.00107 8.89224C1.10382 16.016 1.70286 23.1526 1.1869 30.2507C1.1388 30.9198 1.11476 31.6991 1.54764 32.1374C1.83622 32.4322 2.24943 32.4758 2.63202 32.4989C5.64688 32.6706 8.59834 32.7731 11.6132 32.9372C14.3264 33.0859 16.9411 32.9218 19.8051 32.9372C21.9083 32.9475 23.8847 32.7398 26.0644 32.7988C26.3967 32.8065 26.7728 33.0551 27.0089 32.7808C27.1379 32.6296 27.1685 32.404 27.1925 32.1913C27.5467 28.9459 27.5248 25.6648 27.503 22.3938C27.4833 19.51 27.4636 16.6261 27.4461 13.7422C27.4352 12.0401 27.4243 10.338 27.4111 8.63589C27.4046 7.74126 27.3521 6.72101 26.7575 6.15706C26.4142 5.8315 25.9595 5.73153 25.5222 5.66744C22.2166 5.18808 18.8366 6.21089 15.5463 5.5931C14.4204 5.38034 13.3097 4.97788 12.1707 5.00095C11.4099 5.01633 10.6644 5.22141 9.91666 5.37265C7.73914 5.81356 5.71903 5.5931 3.5437 5.40341C1.59136 5.22397 0.970462 6.74152 1.00107 8.89224Z" fill="#CCCCCC" stroke="black" stroke-width="2" stroke-miterlimit="10"/>
<path d="M1 14C4.8648 13.2874 8.74952 12.9556 12.6342 13.0048C14.2944 13.0252 15.9523 13.1194 17.6102 13.2095C20.9106 13.3897 24.2132 13.5741 27.5135 13.7543" stroke="black" stroke-width="2" stroke-miterlimit="10"/>
<path d="M5.72432 10C4.90994 9.65382 4.3579 8.73154 4.1275 7.7617C3.8971 6.79186 3.93588 5.76653 3.97922 4.76233C4.00888 4.01976 4.06363 3.20848 4.50389 2.6641C4.92135 2.14614 5.58289 2.01137 6.19424 2.0008C6.69382 1.99287 7.30289 2.03515 7.56523 2.52932C8.04656 3.43046 7.823 4.64342 7.81844 5.63704" stroke="black" stroke-width="3" stroke-miterlimit="10"/>
<path d="M12.0462 9.94992C11.4213 10.1464 10.7409 9.74252 10.3613 9.12576C9.98176 8.50899 9.8591 7.7203 9.84521 6.95618C9.81744 5.61076 9.8429 4.19167 10.3937 3.01273C10.7154 2.32501 11.2084 1.98934 12.1619 2.00026C12.7243 2.00572 13.1132 2.49148 13.3377 3.10006C13.5922 3.7905 13.738 4.53826 13.7658 5.29147" stroke="black" stroke-width="3" stroke-miterlimit="10"/>
<path d="M17.8205 10C17.0975 9.56749 16.6844 9.22864 16.3694 8.60604C16.2506 8.37188 16.1344 7.85672 16.0208 7.54542C15.7445 6.79334 15.7032 5.97515 15.7419 5.17073C15.7729 4.50681 15.8116 3.82636 16.0595 3.21754C16.3074 2.60871 16.8161 2.07427 17.4384 2.01091C18.2828 1.92826 19.5067 2.31394 19.6229 3.20927C19.7365 4.08807 19.5248 5.0082 19.6229 5.82363" stroke="black" stroke-width="3" stroke-miterlimit="10"/>
<path d="M23.1935 10C22.572 9.57424 22.3016 8.89617 21.9419 8.23388C21.7759 7.92901 21.7525 7.36921 21.6971 7.04069C21.6375 6.68327 21.6184 6.32058 21.6226 5.95527C21.6333 5.15893 21.6418 4.3626 21.6524 3.56627C21.6588 3.13788 21.8163 2.70686 22.0675 2.41514C22.2612 2.18912 22.4081 2.08925 22.672 2.04982C23.1041 1.98149 23.5809 1.93681 23.9385 2.24168C24.3472 2.5886 24.4558 3.26141 24.5345 3.86588C24.6133 4.47561 24.5473 4.96445 24.3983 5.64514" stroke="black" stroke-width="3" stroke-miterlimit="10"/>
<path d="M4.0625 17.4221C4.8236 16.9532 5.74908 17.1954 6.61152 17.2598C7.85675 17.35 9.10649 17.0356 10.3495 17.1438C10.8539 17.1876 11.3493 17.301 11.8492 17.3809C15.9677 18.0379 20.1875 16.4481 24.2925 17.2134C24.3555 18.6538 24.4208 20.0967 24.4839 21.537C24.5559 23.1526 24.6257 24.7733 24.4929 26.3837C24.4253 27.198 24.306 28.0328 24.4861 28.8264C20.5658 29.0325 16.6387 29.0532 12.7161 28.8986C11.1331 28.8367 9.55234 28.744 7.96709 28.7491C7.02359 28.7517 4.63445 29.4603 4.2449 28.3678C3.99495 27.6695 4.09628 26.4765 4.05575 25.7215C4.00846 24.8197 3.97468 23.9179 3.95892 23.016C3.92514 21.1505 3.95892 19.2825 4.0625 17.4221Z" fill="white" stroke="black" stroke-width="2" stroke-miterlimit="10"/>
<path d="M9.83789 17C9.83789 18.6431 9.83789 20.2997 9.83789 21.9481C9.83789 22.6269 9.83789 23.303 9.83789 23.9845C9.83789 25.6599 9.83789 27.3569 9.83789 29" stroke="black" stroke-width="2" stroke-miterlimit="10"/>
<path d="M17.6934 18C17.6934 19.5825 17.6934 21.165 17.6934 22.75C17.6934 24.8325 17.6934 26.9175 17.6934 29" stroke="black" stroke-width="2" stroke-miterlimit="10"/>
<path d="M3.94629 23C5.82078 23 7.41228 23 9.2596 23C10.2874 23 11.3107 23 12.3385 23C14.0839 23 15.4875 23 17.113 23C19.5919 23 22.089 23 24.5679 23" stroke="black" stroke-width="2" stroke-miterlimit="10"/>
</svg>
