<svg width="23" height="36" viewBox="0 0 23 36" fill="none" xmlns="http://www.w3.org/2000/svg">
<path d="M19.236 20.281C19.67 19.4271 20.098 18.5667 20.4499 17.6673C21.5171 14.9432 21.8543 11.8295 21.1506 8.9658C20.4469 6.1021 18.6555 3.53061 16.2219 2.29032C15.0286 1.68316 13.7238 1.40069 12.422 1.19613C11.2698 1.01431 10.0911 0.894179 8.9476 1.13445C7.20598 1.49809 5.69893 2.66046 4.24758 3.79035C3.41489 4.44297 2.89886 5.11181 2.22743 6.15405C1.61171 7.11511 1.35076 8.1541 1.19536 9.31646C0.7409 12.6704 1.03703 16.203 2.53236 19.1641C3.37091 20.8265 4.47921 22.3038 5.3207 23.9662C5.97747 25.2584 6.46418 26.648 7.07111 27.9728C7.91846 29.8137 8.97985 31.5475 10.0911 33.2034C11.5454 35.3723 12.2373 33.1027 13.1609 31.5053C15.2837 27.8331 17.3097 24.0895 19.2331 20.2875L19.236 20.281Z" fill="black" stroke="black" stroke-width="2" stroke-miterlimit="10"/>
<path d="M17.1185 14.5831C17.9424 11.9661 17.0745 8.8102 15.0719 7.14458C14.5354 6.69976 13.9284 6.3556 13.2863 6.13806C12.2982 5.80688 11.2456 5.79065 10.2194 5.89455C9.36916 5.98221 8.49835 6.16404 7.78587 6.69002C7.24345 7.08938 6.83004 7.66407 6.42542 8.22902C6.1029 8.68033 5.77451 9.14138 5.57514 9.67061C5.38162 10.1869 5.31419 10.7453 5.24968 11.3005C5.08256 12.7356 4.92423 14.2454 5.4256 15.5831C5.88886 16.8201 6.88575 17.752 7.99698 18.2812C11.3805 19.8884 15.8108 18.726 17.1155 14.5798L17.1185 14.5831Z" fill="#FEF1E8"/>
<path d="M13.2784 16.0924C13.7857 15.6573 14.29 15.206 14.6741 14.6345C15.4892 13.4202 15.6387 11.6994 15.0494 10.3325C14.46 8.96555 13.1524 8.02073 11.7861 7.96228C10.6719 7.91683 9.57825 8.42658 8.71037 9.20257C7.67537 10.1279 6.89546 11.5955 7.16813 13.0371C7.26196 13.5338 7.47306 13.9949 7.70469 14.4332C8.0624 15.1053 8.49047 15.7612 9.08567 16.1768C10.3728 17.0794 12.1027 17.1021 13.2784 16.0891V16.0924Z" fill="#C1272D"/>
</svg>
