<svg width="37" height="40" viewBox="0 0 37 40" fill="none" xmlns="http://www.w3.org/2000/svg">
<path d="M9.34676 30.9776C9.27269 28.4121 8.88752 25.8532 9.01196 23.291C9.06233 22.2141 9.18084 21.0351 8.62087 20.1558C7.40314 20.9923 6.26838 21.9803 5.24324 23.0901C3.82108 21.7498 2.48188 20.3007 1.23749 18.7561C1.13971 18.6343 1.03898 18.5059 1.00935 18.3445C0.917501 17.8373 1.52192 17.5804 1.96634 17.4191C3.51887 16.8559 4.41661 15.1203 5.50989 13.7734C7.2787 11.5965 9.73785 10.3022 12.1289 9.06722C12.8459 8.69837 13.5599 8.32623 14.2769 7.95738C14.9287 9.38667 15.7761 10.8193 17.0827 11.501C18.2471 12.1069 19.687 12.0016 20.7714 11.2309C21.8558 10.4603 22.5432 9.04746 22.5343 7.61816C24.5579 8.52053 26.6171 9.44925 28.2882 11.0037C29.2214 11.8698 30.0125 12.9138 30.9695 13.747C32.4272 15.0182 34.2405 15.7757 35.5175 17.2709C35.793 17.5936 36.0567 18.0448 35.9056 18.4597C35.8493 18.6112 35.7456 18.7298 35.6449 18.8484C34.3442 20.3468 33.0465 21.842 31.7458 23.3404C30.6732 21.7959 29.3429 20.4753 27.8467 19.4576C27.9119 25.9981 27.9741 32.5354 28.0393 39.0759C22.5906 38.9244 17.136 38.9145 11.6874 39.0495C11.1541 39.0627 9.73193 39.3822 9.27862 39.0956C8.68012 38.7202 9.02677 37.7948 9.10085 36.978C9.27565 34.9856 9.40898 32.9833 9.34972 30.9809L9.34676 30.9776Z" fill="#C1272D" stroke="black" stroke-miterlimit="10"/>
<path d="M16.6199 3.56016C16.5369 2.55241 17.0791 1.49855 17.9294 1.13299C18.7798 0.767436 19.8582 1.1791 20.273 2.07817C20.6878 2.97725 20.3204 4.23859 19.4849 4.64037C19.1886 4.78198 18.8361 4.83797 18.6316 5.11461C18.4005 5.43077 18.4746 5.92476 18.7087 6.23763C18.9427 6.55049 19.2983 6.71516 19.6479 6.83701C20.0923 6.99179 20.5486 7.09718 21.0108 7.14658C21.5737 7.20586 22.2463 7.25526 22.5248 7.80195C22.8003 8.33876 22.5011 9.0073 22.1752 9.50789C21.2597 10.9141 19.8879 12.1689 18.3294 12.0767C17.3902 12.0207 16.5102 11.4641 15.8643 10.7034C15.2184 9.9426 14.7859 8.98425 14.46 8.00284C15.9295 7.85464 17.1028 6.23433 18.5753 6.3496" stroke="black" stroke-width="2" stroke-miterlimit="10"/>
</svg>
