<svg width="38" height="36" viewBox="0 0 38 36" fill="none" xmlns="http://www.w3.org/2000/svg">
<path d="M18.6176 24.2823C16.0763 24.2644 13.5395 24.0187 11.0488 23.554C10.5102 23.4557 8.98169 22.8212 8.48447 23.0491C8.07473 23.2367 8.10235 23.8891 7.84453 24.251C7.44399 24.8185 7.37494 25.5245 7.27825 26.2082C7.16316 27.0706 6.7442 27.8034 6.1457 28.8177C5.45972 29.975 7.34731 31.2529 8.65481 31.6685C9.96232 32.0841 11.3757 31.9679 12.7523 31.9053C14.755 31.816 17.0891 32.2047 18.9997 31.8428C19.0135 31.2351 18.4887 24.2823 18.6176 24.2823Z" fill="#534741" stroke="black" stroke-miterlimit="10"/>
<path d="M10.0186 13C7.48072 13.7424 4.78282 13.9825 2.14893 13.6987C2.94001 14.2926 3.73566 14.8865 4.52674 15.4847C3.78596 16.3581 3.04061 17.2402 2.54675 18.2533C2.0529 19.2664 1.81969 20.4498 2.16264 21.5196C2.33184 22.0524 2.63364 22.5327 2.93086 23.0087C3.90028 24.5633 4.47187 26.3711 5.44129 27.9257C5.51445 28.0393 6.00831 28.9345 6.13634 28.9912C6.44729 29.1222 6.72622 27.7467 6.87712 27.4585C7.70936 25.8864 8.62848 19.4847 10.7045 18.131C11.6007 17.5502 12.5061 18.179 13 18.4541C12.1129 16.6899 10.6588 14.8734 10.014 13.0044L10.0186 13Z" fill="#534741" stroke="black" stroke-miterlimit="10"/>
<path d="M14.126 15C15.3846 12.6969 16.8491 10.5087 18.4961 8.47372C18.8517 8.0332 19.9606 7.17133 19.9981 6.60154C20.0261 6.1323 19.7454 5.77318 19.4506 5.41407C18.8938 4.73415 18.3651 4.24097 17.9066 3.67117C17.2188 2.81409 16.4795 2.06235 15.5437 1.40158C14.374 0.573223 13.2417 1.13344 12.2217 2.11023C11.2017 3.08702 10.6121 4.43728 9.99919 5.72051C9.10084 7.59269 7.60358 9.51754 7 11.452C7.55211 11.7776 14.1915 14.8851 14.126 15Z" fill="#534741" stroke="black" stroke-miterlimit="10"/>
<path d="M27.8383 12.6865C28.376 10.1175 29.4605 7.6571 31 5.51328C30.0671 5.90677 29.1343 6.29573 28.2014 6.68921C27.7556 5.61278 27.3007 4.5273 26.6022 3.59108C25.9037 2.65486 24.9248 1.86788 23.7714 1.6327C23.2015 1.5151 22.6271 1.31158 22.0435 1.2754C20.0996 1.1578 17.8433 0.945229 15.9408 1.01307C15.8029 1.01759 14.1348 1.32062 14.0245 1.40656C13.7533 1.61008 15.8213 2.48751 16.0143 2.76793C16.9747 4.14739 21.1152 7.50332 22.0435 10.2396C22.3606 11.1759 20.913 12.4422 20.7154 12.9895C22.7742 13.0981 25.798 12.3201 27.8383 12.6955V12.6865Z" fill="#534741" stroke="black" stroke-miterlimit="10"/>
<path d="M26 15.8981C27.1257 18.0941 28.0528 20.3934 28.7723 22.7646C28.9268 23.2766 29.1608 24.525 29.5802 24.8484C29.9289 25.1133 30.3704 24.9562 30.803 24.9292C31.602 24.8798 32.1185 24.9157 32.7851 24.7586C33.8446 24.5071 34.4141 24.4667 35.5707 24.5026C36.8907 24.5475 37.1555 22.32 36.926 20.9952C36.6964 19.6704 35.9636 18.5073 35.2926 17.3531C34.3126 15.669 33.6062 13.473 32.4276 12C31.889 12.2739 26.0618 16.0059 26.0044 15.8936L26 15.8981Z" fill="#534741" stroke="black" stroke-miterlimit="10"/>
<path d="M24.1414 35C24.3119 34.0039 24.4825 33.0078 24.653 32.0117C25.7551 32.2366 26.8702 32.4615 27.9941 32.4018C29.1181 32.3422 30.2594 31.9612 31.0554 31.1303C31.449 30.7172 32.0393 29.7119 32.2973 29.2804C33.4344 27.3524 34.3921 26.953 35.3323 25.328C35.4023 25.2087 36.1151 23.8132 35.9839 23.8453C35.5204 23.9739 34.5145 24.0152 34.1909 24.0198C32.4417 24.0611 27.1545 25.4336 24.6312 24.41C24.0277 24.1667 23.9315 22.3581 23.6778 22C22.5146 23.6571 21.3644 26.8704 20 28.3623C21.7974 30.2444 23.2187 32.5166 24.1458 34.9954" fill="#534741"/>
<path d="M24.1414 35C24.3119 34.0039 24.4825 33.0078 24.653 32.0117C25.7551 32.2366 26.8702 32.4615 27.9941 32.4018C29.1181 32.3422 30.2594 31.9612 31.0554 31.1303C31.449 30.7172 32.0393 29.7119 32.2973 29.2804C33.4344 27.3524 34.3921 26.953 35.3323 25.328C35.4023 25.2087 36.1151 23.8132 35.9839 23.8453C35.5204 23.9739 34.5145 24.0152 34.1909 24.0198C32.4417 24.0611 27.1545 25.4336 24.6312 24.41C24.0277 24.1667 23.9315 22.3581 23.6778 22C22.5146 23.6571 21.3644 26.8704 20 28.3623C21.7974 30.2444 23.2187 32.5166 24.1458 34.9954" stroke="black" stroke-miterlimit="10"/>
</svg>
