<svg width="97" height="80" viewBox="0 0 97 80" fill="none" xmlns="http://www.w3.org/2000/svg">
<g clip-path="url(#clip0_175_473)">
<path d="M60.0579 70.45C64.819 65.3148 67.8695 58.4892 68.5712 51.3891C68.924 47.8328 68.706 44.2456 68.4859 40.6791C68.3492 38.4458 68.2065 36.1837 67.5345 34.0578C66.3948 30.4582 63.8458 27.5624 61.3542 24.7967C59.9905 23.2817 58.6208 21.7668 57.1124 20.4066C48.7022 12.8174 36.7162 10.7657 25.6757 12.2126C20.6946 12.8648 15.648 14.2312 11.6401 17.3767C10.0009 18.6626 8.5698 20.2209 7.29528 21.8968C0.680882 30.58 -1.59263 42.6646 1.38652 53.3086C3.11495 59.4799 6.44693 65.0361 10.1833 70.1548C11.0772 71.3788 12.0068 72.5944 13.1763 73.5336C14.7442 74.7905 16.6569 75.4778 18.536 76.1259C32.968 81.1042 48.5436 82.8689 60.0599 70.452L60.0579 70.45Z" fill="#5BD1FF" stroke="black" stroke-miterlimit="10"/>
<path d="M32.2716 13.3994C29.7226 14.1692 27.1736 14.9391 24.6245 15.711C23.7048 15.9897 22.7633 16.2786 22.0002 16.8792C21.2965 17.4324 20.7871 18.2208 20.0716 18.7575C19.1003 19.4881 17.8516 19.6883 16.811 20.3075C15.7703 20.9267 14.9418 22.3447 15.59 23.3932C13.7842 23.7791 11.9488 24.1734 10.3234 25.0795C8.69805 25.9855 7.2828 27.4902 6.8943 29.3663C6.24614 32.5077 8.74562 35.6078 11.6732 36.6192C13.1896 37.1434 14.9953 37.3725 15.9011 38.743C16.5394 39.709 16.5275 40.9721 16.4542 42.1424C16.2421 45.5459 15.7228 48.9474 15.9309 52.3529C16.0696 54.6192 16.5354 56.8607 17.3065 58.9845C18.0756 61.1022 19.1756 63.1372 20.805 64.6357C21.5978 65.3663 22.5929 66.1218 22.6186 67.2239C24.0596 67.323 25.2687 65.9277 25.572 64.4582C25.8753 62.9886 25.5125 61.4695 25.1954 60.0041C24.8783 58.5366 24.6107 56.9742 25.0904 55.5562C25.4432 54.5119 26.1667 53.6553 26.6899 52.6935C27.2132 51.7317 27.5244 50.5015 27.0031 49.5377C26.7177 49.0113 26.2122 48.6233 26.012 48.0557C25.8158 47.5026 25.9486 46.8813 25.8376 46.3034C25.5383 44.7265 23.7465 44.13 22.3491 43.4468C20.3273 42.4582 18.6643 40.6997 17.7445 38.582C17.4492 37.9009 17.2272 37.1249 17.4472 36.4148C17.6415 35.7874 18.1449 35.3251 18.6246 34.8978C20.0755 33.6037 21.6394 32.2559 23.5324 31.9959C24.1944 31.905 24.8743 31.9525 25.5264 31.8039C26.2955 31.6285 26.9813 31.1868 27.6513 30.7554C29.8257 29.3498 32.0001 27.9422 34.1725 26.5366C34.7473 26.1651 35.3499 25.7647 35.671 25.1434C36.3132 23.903 35.5977 22.4004 35.5838 20.9928C35.5719 19.7544 36.1111 18.5903 36.3866 17.3849C37.1576 14.0041 35.2805 12.4974 32.2697 13.4076L32.2716 13.3994Z" fill="#D1E84B" stroke="black" stroke-miterlimit="10"/>
<path d="M50.9206 63.7791C51.4399 63.1228 52.1336 62.6501 52.754 62.097C55.7213 59.453 56.8214 54.7719 55.3625 50.9989C54.7917 49.5211 53.8522 48.0289 54.1772 46.4726C55.091 47.2838 56.0266 48.0681 56.982 48.8276C58.7064 50.2002 60.526 51.5005 62.5775 52.2373C64.6291 52.9742 66.6072 52.9515 68.5735 51.9959C68.7579 48.1981 68.7301 44.8669 68.4883 41.2858C68.3257 38.8565 67.9075 36.3509 67.1345 34.0743C65.6618 29.7379 62.1811 26.5304 58.8353 23.5273C57.648 22.4603 56.3873 21.356 54.8492 21.034C52.8532 20.6151 50.8571 21.5975 49.0474 22.5717C47.7115 23.292 46.3716 24.0268 45.1902 24.999C42.2091 27.453 40.4331 31.4159 40.5401 35.3705C42.659 35.3436 44.7779 35.4799 46.877 35.7729C47.4399 35.8514 48.1059 36.0289 48.2863 36.5882C48.3973 36.9329 48.2784 37.3085 48.1456 37.645C47.6263 38.9577 46.5995 40.3385 45.2398 40.225C44.1397 40.1321 43.3686 39.1104 42.5758 38.3096C41.7829 37.5088 40.4965 36.8648 39.6343 37.5831C38.8097 38.9185 37.9494 40.4974 38.4252 42.0082C38.8256 43.2817 40.102 44.1568 40.3082 45.4799C40.4489 46.3859 40.1338 47.5397 40.8513 48.0722C41.1367 48.2827 41.5074 48.3116 41.8344 48.4437C42.7026 48.7905 43.1486 49.8122 43.2675 50.7719C43.3865 51.7317 43.2695 52.7162 43.438 53.6697C43.6897 55.0918 44.55 56.3158 44.9444 57.7028C45.5073 59.6842 45.0733 61.8122 45.212 63.8741C45.3032 65.2301 46.1238 68.2394 47.8225 68.3674C49.543 68.4974 49.9592 64.9969 50.9206 63.7812V63.7791Z" fill="#D4E94C" stroke="black" stroke-miterlimit="10"/>
<path d="M47.2359 75.29C48.9267 75.3436 50.6274 74.5717 51.7394 73.2446C52.3974 72.4603 52.8513 71.5067 53.5272 70.7389C54.2032 69.9711 55.222 69.3849 56.1833 69.6718C56.5877 69.7915 56.9682 70.0619 57.3865 70.0186C58.3458 69.9216 58.441 68.5408 58.6987 67.5727C59.2457 65.5294 61.9831 64.5573 63.6144 65.8266C61.9414 67.647 60.774 69.6161 59.101 71.4365C58.1218 72.5015 56.6392 73.4241 55.5609 74.3798C53.2061 76.4685 50.0526 78.3921 46.9564 78.9247C43.3232 79.55 43.8603 75.1806 47.2359 75.2858V75.29Z" fill="#D1E84B" stroke="black" stroke-miterlimit="10"/>
<path d="M47.4746 21.3189C50.2179 19.6058 54.8739 20.2312 58.0295 20.7719C69.2286 22.6873 80.4277 24.6027 91.6268 26.5181C90.2809 24.7595 91.3077 22.1362 92.6535 20.3798C94.0014 18.6213 95.7338 16.8751 95.7774 14.6274C95.8051 13.2116 95.1352 11.8968 94.7665 10.5325C94.3978 9.16821 94.4355 7.46955 95.5217 6.61713C95.926 6.29927 96.4553 6.12177 96.7308 5.67801C97.1391 5.0196 96.7447 4.08256 96.1025 3.67182C95.4602 3.26109 94.6674 3.23013 93.9142 3.21155C86.4078 3.0196 78.9074 2.6646 71.4149 2.1486C64.1107 1.64293 57.1812 -0.0598592 49.9047 0.23529C49.6768 2.87512 50.315 6.52631 50.313 9.51496C50.313 13.55 48.5688 17.4468 47.4746 21.3189Z" fill="#E6E6E6" stroke="black" stroke-miterlimit="10"/>
<path d="M43.7965 35.2776C43.2712 35.2136 42.746 35.1496 42.2207 35.0877C43.8976 27.8555 45.3723 20.5738 46.6389 13.2508C47.2117 9.94427 47.3544 2.51393 50.2067 0.179565C50.9302 3.24871 45.2197 35.4489 43.7965 35.2776Z" fill="#754C24" stroke="black" stroke-miterlimit="10"/>
<path d="M52.4785 9.87201L56.1534 10.1857" stroke="black" stroke-miterlimit="10"/>
<path d="M60.5107 4.93909C59.3769 4.93909 58.5127 5.36427 57.3789 5.36427C57.3769 6.29306 57.373 7.22185 57.371 8.15065C58.5484 7.68006 59.8546 8.44167 60.7387 9.37459C61.1886 9.8493 61.591 10.3839 61.8328 10.9989C62.3303 12.2765 62.0488 13.8039 61.256 14.9081C60.4631 16.0124 59.2144 16.7059 57.9121 16.9577C57.4225 17.0526 56.8953 17.0836 56.4453 16.8607C55.9954 16.6377 55.6644 16.0867 55.817 15.5934" stroke="black" stroke-miterlimit="10"/>
<path d="M63.8386 4.80084L64.126 10.9329C64.2172 12.8566 64.3024 14.8215 63.7891 16.6708C64.6989 14.8401 65.6424 12.966 67.1151 11.5872C66.344 12.0537 65.8009 12.9102 65.6919 13.8308C65.5829 14.7513 65.91 15.7193 66.5502 16.3674" stroke="black" stroke-miterlimit="10"/>
<path d="M69.8653 11.7998C69.6017 11.5914 69.2013 11.6822 68.9595 11.9175C68.7176 12.1528 68.6007 12.4933 68.5135 12.8256C68.2538 13.8163 68.1844 14.8628 68.3113 15.8824C68.3232 15.9856 68.341 16.0908 68.3985 16.1755C68.5333 16.3757 68.8445 16.355 69.0229 16.1961C69.2013 16.0372 69.2786 15.7916 69.342 15.5563C69.6354 14.4665 69.786 13.3334 69.788 12.2023C69.8732 14.2952 69.9604 16.3881 70.0457 18.4809C70.0595 18.807 70.0714 19.1414 69.9743 19.451C69.6631 20.4397 68.4659 20.71 67.4728 20.8174C67.2647 20.8401 67.0388 20.8586 66.8584 20.7451C66.678 20.6316 66.5888 20.4108 66.5115 20.2064C66.3391 19.7441 66.1646 19.2818 65.9922 18.8194" stroke="black" stroke-miterlimit="10"/>
<path d="M78.9907 6.69141C78.5645 6.44373 78.0016 6.66045 77.6845 7.04641C77.3673 7.43238 77.2365 7.94218 77.1156 8.43547C76.9669 9.04435 76.8163 9.65322 76.6676 10.2621C76.1205 12.4871 75.5755 14.8607 76.2652 17.0423C76.5289 17.8761 77.0323 18.7079 77.8331 18.9866C78.7964 19.323 79.9639 18.6006 80.1443 17.5603" stroke="black" stroke-miterlimit="10"/>
<path d="M82.4961 6.77813C81.9867 7.37462 81.8777 8.22292 81.8083 9.01755C81.5625 11.8328 81.5268 14.6605 81.4931 17.4861C81.4852 18.0661 81.4812 18.6584 81.6557 19.2095C81.8301 19.7606 82.2245 20.2704 82.7657 20.4107C83.2949 20.549 83.8539 20.3137 84.2899 19.9732C85.1482 19.3003 85.6635 18.2353 85.8855 17.1414C86.1075 16.0475 86.0639 14.9144 85.9886 13.7998C85.9093 12.6337 85.1541 3.66771 82.4961 6.77607V6.77813Z" stroke="black" stroke-miterlimit="10"/>
<path d="M86.927 18.7781C86.9211 18.1589 87.7635 17.8225 88.2571 18.1672C88.7506 18.5119 88.8596 19.2549 88.6693 19.8411C88.4791 20.4272 88.0549 20.8958 87.6446 21.3436C87.2878 21.7337 86.931 22.1238 86.5742 22.5119C87.3988 22.4169 88.2551 22.6398 88.9389 23.1311" stroke="black" stroke-miterlimit="10"/>
</g>
<defs>
<clipPath id="clip0_175_473">
<rect width="97" height="80" fill="white"/>
</clipPath>
</defs>
</svg>
