<?xml version="1.0" encoding="UTF-8"?>
<svg id="Capa_1" data-name="Capa 1" xmlns="http://www.w3.org/2000/svg" viewBox="0 0 696.85 714.4">
  <defs>
    <style>
      .cls-1 {
        fill: #217941;
      }
    </style>
  </defs>
  <g>
    <path class="cls-1" d="M287.9,55.6c-3.4.7-6.5.5-9.5-.6-2.9-1.1-5.4-2.9-7.5-5.4s-3.5-5.6-4.3-9.3c-.8-3.6-.7-7,.2-10.2s2.5-5.9,4.7-8.1c2.2-2.2,5-3.6,8.3-4.3,2.3-.5,4.5-.5,6.5,0,2,.4,3.8,1.2,5.3,2.5,1.5,1.2,2.6,2.8,3.3,4.6l3.9,18.3c.1,2-.3,3.9-1.1,5.6-.9,1.7-2.2,3.2-3.9,4.4s-3.6,2.1-5.8,2.5h-.1ZM288.2,43.5c2.1-.4,3.6-1.5,4.6-3.2s1.2-3.6.8-5.8c-.3-1.4-.9-2.6-1.7-3.6s-1.8-1.7-3-2.1c-1.2-.4-2.4-.5-3.8-.2-1.4.3-2.5.9-3.4,1.7-.9.9-1.6,1.9-1.9,3.2-.4,1.2-.4,2.6-.1,4,.3,1.4.9,2.7,1.7,3.7s1.8,1.7,3.1,2.1c1.2.4,2.5.5,3.8.2h-.1ZM297,52.9l-2.1-9.8v-9.2l-3.8-8.5-1.9-8.9,12.6-2.7,7.8,36.5-12.6,2.7v-.1Z"/>
    <path class="cls-1" d="M315.3,49.5l-2.5-37.2,13.1-.9,2.5,37.2-13.1.9ZM339.1,47.9l-1.4-21.1c-.1-1.7-.7-3-1.7-3.9s-2.3-1.3-3.9-1.2c-1,0-2,.4-2.8.8-.8.5-1.4,1.2-1.8,2-.4.9-.6,1.9-.5,3l-5.2-2.1c-.2-3,.3-5.6,1.4-7.9,1.1-2.3,2.8-4.1,5-5.4,2.2-1.3,4.8-2.1,7.6-2.3,2.6-.2,5.1.3,7.2,1.4,2.2,1.1,3.9,2.7,5.2,4.6,1.3,2,2.1,4.3,2.3,6.9l1.6,24.1-13.1.9.1.2Z"/>
    <path class="cls-1" d="M375.4,49.2c-3.9-.3-7.3-1.4-10.3-3.3-3-1.9-5.2-4.5-6.8-7.5-1.6-3.1-2.2-6.5-2-10.1.3-3.8,1.4-7,3.4-9.8s4.6-4.9,7.8-6.4,6.7-2.1,10.6-1.8c4,.3,7.5,1.4,10.4,3.3,3,1.9,5.2,4.4,6.8,7.4s2.2,6.4,2,10.2c-.3,3.6-1.4,6.9-3.3,9.7-2,2.8-4.5,5-7.8,6.5-3.2,1.5-6.8,2.1-10.7,1.8h-.1ZM376.1,37.3c1.4.1,2.7-.1,3.9-.7,1.1-.6,2.1-1.4,2.7-2.5.7-1.1,1.1-2.4,1.2-3.9.1-1.5-.1-2.9-.7-4.1-.5-1.2-1.3-2.1-2.4-2.8-1-.7-2.3-1.1-3.7-1.2-1.3,0-2.6.2-3.7.7-1.1.6-2,1.4-2.7,2.5s-1.1,2.4-1.2,3.9c-.1,1.5.1,2.8.7,4,.5,1.2,1.3,2.1,2.4,2.9,1,.7,2.2,1.1,3.6,1.2h-.1Z"/>
    <path class="cls-1" d="M401.4,24.4l2.1-10.9,28.8,5.5-2.1,10.9-28.8-5.5ZM404.3,51.7L414.2,0l12.9,2.5-9.9,51.7-12.9-2.5h0Z"/>
    <path class="cls-1" d="M428.2,56.2l16.9-52.9,12.5,4-16.9,52.9-12.5-4ZM450.9,63.4l6.4-20.1c.5-1.6.4-3-.2-4.2-.6-1.2-1.7-2.1-3.2-2.5-1-.3-2-.4-2.9-.2s-1.7.6-2.4,1.2c-.7.7-1.2,1.5-1.5,2.6l-4.1-3.9c.9-2.9,2.3-5.1,4.1-6.9,1.8-1.7,3.9-2.8,6.4-3.3,2.4-.5,5-.2,7.7.6,2.8.9,5,2.2,6.7,4s2.8,3.9,3.3,6.2.3,4.8-.5,7.4l-7.3,23-12.5-4v.1Z"/>
    <path class="cls-1" d="M484.6,78.3c-3.8-1.8-6.7-4.1-8.8-7s-3.4-6-3.7-9.4.3-6.8,1.9-10.2c1.6-3.4,3.9-6.1,6.7-8s6-3,9.5-3.2,7,.5,10.4,2.1c3.3,1.6,6,3.7,7.9,6.4s3,5.6,3.3,8.9c.3,3.2-.4,6.5-2,9.8-.3.6-.7,1.3-1.1,2-.4.7-1,1.4-1.6,2.2l-29.3-13.8,3.7-7.7,24.6,11.6-6.9.8c.8-1.9,1.3-3.5,1.4-5,0-1.5-.2-2.7-.8-3.8s-1.7-2-3.2-2.6c-1.4-.7-2.9-.9-4.3-.8-1.4.2-2.8.8-4,1.9-1.2,1.1-2.3,2.5-3.2,4.4-.9,2-1.4,3.8-1.4,5.4s.4,3.1,1.3,4.3c.9,1.2,2.1,2.2,3.9,3.1,1.6.8,3.1,1.2,4.7,1.2,1.5,0,3-.2,4.6-.9l3.3,9.2c-2.6,1.1-5.4,1.6-8.2,1.5s-5.6-.9-8.5-2.3l-.2-.1Z"/>
    <path class="cls-1" d="M504.1,87.2l19.9-31.5,11.1,7-19.9,31.5-11.1-7ZM526.1,77.1l-2.2-7.3c3.4-2.8,6.7-4.5,9.9-5s6.4.3,9.7,2.4c1.4.9,2.6,1.9,3.4,3,.8,1.1,1.4,2.3,1.6,3.6l-12,4.7c-.1-.7-.4-1.3-.8-1.9-.4-.6-1.1-1.2-1.9-1.7-1.4-.9-2.8-1.1-4.1-.8-1.4.4-2.6,1.4-3.7,3.1l.1-.1Z"/>
    <path class="cls-1" d="M555.3,125.7c-2.9-2.6-5-5.5-6.2-8.9-1.2-3.3-1.6-6.7-1-10.1.6-3.4,2.1-6.5,4.6-9.3s5.4-4.7,8.7-5.8c3.3-1,6.7-1.1,10.2-.3s6.7,2.5,9.7,5.1c2.1,1.9,3.8,4,4.9,6.3,1.2,2.3,1.8,4.8,2,7.5l-11.7.8c0-1.1-.4-2.1-.9-3s-1.2-1.8-2.1-2.6c-1.1-.9-2.2-1.5-3.5-1.8s-2.5-.2-3.8.2c-1.2.4-2.4,1.2-3.4,2.4-1,1.1-1.6,2.3-1.9,3.6-.3,1.3-.2,2.6.2,3.8s1.1,2.3,2.2,3.2c1.1.9,2.1,1.5,3.2,1.9,1.1.3,2.1.4,3.3.2l.7,11.8c-2.9.2-5.6-.1-8-.9-2.5-.8-4.8-2.2-7.1-4.2l-.1.1Z"/>
    <path class="cls-1" d="M569.1,137.5l40.3-38.3,9.1,9.5-40.3,38.3-9.1-9.5Z"/>
    <path class="cls-1" d="M593.1,166.3c-2.4-3.1-3.9-6.4-4.4-9.9s-.2-6.9,1.1-10.1,3.3-6,6.2-8.2c3-2.3,6.2-3.6,9.6-4,3.4-.4,6.7.1,10,1.5,3.2,1.4,6.1,3.6,8.4,6.7,2.5,3.2,4,6.5,4.5,10s.2,6.8-1,10-3.3,5.9-6.3,8.3c-2.9,2.2-6,3.6-9.5,4-3.4.4-6.8,0-10-1.4-3.3-1.4-6.1-3.7-8.5-6.8l-.1-.1ZM602.5,159c.9,1.1,1.9,2,3.1,2.4,1.2.5,2.4.6,3.7.4s2.5-.8,3.7-1.7c1.2-.9,2.1-2,2.6-3.2s.7-2.4.5-3.7c-.2-1.2-.7-2.4-1.6-3.6-.8-1.1-1.8-1.8-3-2.3-1.2-.4-2.4-.6-3.7-.4s-2.5.8-3.7,1.7c-1.2.9-2,2-2.5,3.1-.5,1.2-.7,2.4-.6,3.7.1,1.3.6,2.4,1.5,3.5v.1Z"/>
    <path class="cls-1" d="M614.4,197.8c-1.1-1.9-2-3.9-2.7-6.2-.6-2.2-1-4.4-1-6.5s.2-4.1.8-6l10,2.3c-.5,1.7-.7,3.5-.4,5.3.2,1.8.9,3.5,1.8,5.2.6.9,1.1,1.6,1.7,1.9.6.3,1.1.4,1.6,0,.7-.4,1-1.1,1-2.1s-.3-2.1-.7-3.4-.8-2.7-1.1-4.2c-.4-1.5-.5-3-.5-4.6s.4-3.1,1.3-4.6c.9-1.5,2.3-2.8,4.2-4,2.1-1.2,4.2-1.8,6.4-1.6,2.2.1,4.4,1,6.4,2.5,2.1,1.5,3.9,3.6,5.5,6.2,1.6,2.8,2.7,5.6,3.3,8.6.5,3,.3,5.8-.7,8.4l-10.1-2.4c.6-1.8.8-3.4.5-4.9s-.7-2.8-1.4-3.8c-.6-1-1.2-1.6-1.7-1.8-.5-.2-1-.2-1.5,0-.6.3-.8,1-.8,1.9s.3,2,.7,3.3.7,2.7,1,4.2.4,3,.3,4.6c0,1.6-.5,3.1-1.4,4.6-.8,1.5-2.3,2.8-4.3,4-3.1,1.9-6.4,2.2-9.7.9s-6.2-3.9-8.6-8l.1.2Z"/>
    <path class="cls-1" d="M632,231.8c-1.7-3.8-2.4-7.5-2.2-11,.3-3.6,1.4-6.8,3.3-9.6,2-2.8,4.7-5,8.1-6.5,3.5-1.5,6.9-2.1,10.3-1.7,3.4.4,6.5,1.6,9.3,3.7,2.8,2.1,5,4.9,6.5,8.4,1.5,3.4,2.1,6.7,1.8,10s-1.4,6.2-3.3,8.9c-1.9,2.6-4.5,4.7-7.9,6.2-.7.3-1.4.5-2.1.8-.8.2-1.6.5-2.7.7l-13.3-29.5,7.8-3.5,11.2,24.8-5.7-3.9c1.8-.9,3.3-1.8,4.3-2.9s1.6-2.2,1.8-3.5,0-2.6-.7-4.1-1.6-2.6-2.8-3.4c-1.2-.8-2.6-1.2-4.3-1.2-1.6,0-3.4.4-5.2,1.3-2,.9-3.5,1.9-4.6,3.2-1.1,1.2-1.7,2.6-1.8,4.1s.2,3.1.9,4.8c.7,1.6,1.6,2.9,2.7,4,1.1,1,2.5,1.8,4.1,2.3l-3.5,9.1c-2.7-.9-5.1-2.3-7.2-4.2-2-1.9-3.7-4.3-5-7.3h.2Z"/>
    <path class="cls-1" d="M642.6,256.2l50.2-15.9,4,12.5-50.2,15.9s-4-12.5-4-12.5ZM665.1,240.6l10.5-3.3,8.8,27.9-10.5,3.3-8.8-27.9Z"/>
    <path class="cls-1" d="M645.3,449.1l9.7,2.8,8.1,4.3,9.2.7,8.8,2.5-3.6,12.4-35.8-10.3,3.6-12.4ZM647.2,439.8c1-3.3,2.6-6,4.9-8.1,2.3-2.1,5.1-3.4,8.3-4.1,3.2-.7,6.7-.5,10.3.6,3.6,1,6.5,2.7,8.9,4.9,2.4,2.3,4,4.9,4.9,7.9s.9,6.1,0,9.4c-.6,2.3-1.6,4.2-3,5.8-1.3,1.6-2.9,2.8-4.7,3.6s-3.7,1-5.6.7l-18-5.2c-1.8-.8-3.3-2.1-4.4-3.6-1.1-1.6-1.8-3.4-2.1-5.5s-.1-4.2.5-6.3v-.1ZM657.8,445.7c-.6,2.1-.4,3.9.6,5.6s2.6,2.8,4.7,3.4c1.4.4,2.7.5,3.9.2,1.3-.3,2.4-.8,3.3-1.6.9-.8,1.6-1.9,2-3.3.4-1.3.4-2.6,0-3.8-.3-1.2-1-2.3-1.9-3.2s-2.1-1.6-3.4-2c-1.4-.4-2.8-.5-4-.2s-2.4.8-3.3,1.7c-.9.9-1.6,2-2,3.3l.1-.1Z"/>
    <path class="cls-1" d="M630.1,488.7l19.3,8.5c1.5.7,2.9.8,4.2.3s2.2-1.5,2.9-2.9c.4-1,.6-1.9.5-2.8,0-.9-.4-1.8-1-2.5-.6-.8-1.4-1.4-2.4-1.8l4.3-3.6c2.7,1.2,4.9,2.8,6.3,4.9,1.5,2.1,2.3,4.4,2.4,6.9.1,2.6-.4,5.2-1.5,7.8-1.1,2.4-2.6,4.3-4.6,5.7s-4.2,2.2-6.6,2.5c-2.4.3-4.8-.1-7.1-1.2l-22.1-9.8,5.3-12h.1ZM639.8,466.9l34.1,15.1-5.3,12-34.1-15.1,5.3-12Z"/>
    <path class="cls-1" d="M612.1,520.2c2-3.3,4.6-5.9,7.7-7.6,3.1-1.7,6.4-2.6,9.8-2.5,3.5,0,6.8,1,9.9,2.9,3.2,2,5.6,4.5,7.1,7.5,1.6,3,2.2,6.3,2.1,9.9-.2,3.5-1.3,6.9-3.3,10.2-2.1,3.4-4.7,6-7.8,7.7s-6.3,2.6-9.7,2.6-6.7-1-9.9-3c-3.1-1.9-5.5-4.4-7.1-7.5s-2.3-6.4-2.2-9.9,1.3-7,3.4-10.4v.1ZM622.2,526.4c-.8,1.2-1.2,2.5-1.2,3.8s.3,2.5,1,3.6,1.6,2.1,2.9,2.9c1.3.8,2.6,1.2,3.9,1.3,1.3,0,2.5-.2,3.6-.8,1.1-.6,2-1.5,2.8-2.7.7-1.2,1.1-2.4,1.1-3.6,0-1.3-.3-2.5-1-3.6s-1.6-2.1-2.9-2.9c-1.3-.8-2.5-1.2-3.8-1.3-1.3,0-2.5.2-3.6.8-1.1.6-2,1.4-2.8,2.6v-.1Z"/>
    <path class="cls-1" d="M596.5,544.8l41.4,32.6-8.1,10.3-41.4-32.6,8.1-10.3ZM622,554.7l8.7,6.8-18.1,23-8.7-6.8,18.1-23Z"/>
    <path class="cls-1" d="M564.6,580.8l15,14.9c1.2,1.2,2.5,1.8,3.8,1.8,1.4,0,2.6-.6,3.7-1.7.7-.7,1.3-1.6,1.5-2.5.3-.9.3-1.8,0-2.7s-.8-1.8-1.6-2.5l5.3-1.8c2.1,2.1,3.5,4.4,4.2,6.8s.7,4.8,0,7.1c-.7,2.4-2.1,4.6-4.1,6.6-2,2.1-4.3,3.4-6.7,4.1s-4.7.7-7,0c-2.3-.6-4.4-1.9-6.3-3.8l-17.1-17,9.3-9.3h0ZM581.4,563.9l39.4,39.2-9.3,9.3-39.4-39.2,9.3-9.3Z"/>
    <path class="cls-1" d="M536,604.1c3.3-2.5,6.7-4.1,10.2-4.7s6.9-.3,10.1,1c3.2,1.3,6,3.4,8.2,6.4,2.3,3,3.7,6.2,4.1,9.6.4,3.4,0,6.7-1.5,9.9-1.4,3.2-3.6,6-6.6,8.3-2.9,2.3-6,3.6-9.3,4.1s-6.4.1-9.4-1.1-5.6-3.3-7.9-6.2c-.4-.6-.8-1.2-1.2-1.9-.4-.7-.8-1.5-1.3-2.4l25.6-19.8,5.2,6.8-21.5,16.7,2.4-6.5c1.3,1.6,2.6,2.7,3.8,3.5,1.3.8,2.5,1.1,3.8,1s2.5-.6,3.8-1.6,2.2-2.2,2.6-3.5c.5-1.4.5-2.9.1-4.4-.4-1.6-1.2-3.2-2.5-4.8-1.3-1.7-2.7-3-4.2-3.7s-2.9-1-4.4-.8-3,.9-4.5,2c-1.4,1.1-2.5,2.3-3.2,3.6-.8,1.3-1.2,2.8-1.3,4.5l-9.7-1.2c.2-2.9,1-5.5,2.4-7.9s3.3-4.6,5.9-6.6l.3-.3Z"/>
    <path class="cls-1" d="M519.2,617.4l19,32.1-11.3,6.7-19-32.1,11.3-6.7ZM518.2,641.6l7.5,1.4c.9,4.3.9,8,0,11.1-1,3.1-3.1,5.6-6.5,7.6-1.5.9-2.9,1.4-4.2,1.7s-2.6.2-3.9-.2l1.2-12.8c.6.2,1.3.3,2.1.1.7-.1,1.5-.4,2.3-.9,1.4-.8,2.3-2,2.6-3.3.3-1.4,0-2.9-1.1-4.7h0Z"/>
    <path class="cls-1" d="M461.7,645.5c3.6-1.4,7.2-1.9,10.8-1.5,3.5.4,6.7,1.7,9.5,3.8,2.8,2.1,4.8,4.8,6.2,8.3s1.8,6.9,1.2,10.4c-.6,3.4-2.1,6.5-4.3,9.2-2.3,2.7-5.3,4.8-8.9,6.3-2.7,1.1-5.3,1.6-7.8,1.5-2.6,0-5.1-.6-7.6-1.7l4.6-10.8c1,.4,2.1.6,3.1.6s2.2-.2,3.3-.7c1.3-.5,2.4-1.3,3.2-2.3s1.3-2.2,1.5-3.4c.2-1.3,0-2.7-.5-4.1s-1.3-2.5-2.4-3.3c-1.1-.8-2.2-1.4-3.5-1.6s-2.6,0-3.9.5c-1.3.5-2.3,1.2-3.1,2s-1.3,1.7-1.7,2.8l-10.8-4.7c1.2-2.6,2.7-4.9,4.5-6.7,1.8-1.8,4.1-3.3,6.9-4.4l-.3-.2Z"/>
    <path class="cls-1" d="M444.9,652.4l15.6,53.3-12.6,3.7-15.6-53.3,12.6-3.7Z"/>
    <path class="cls-1" d="M408.3,660.5c3.8-.7,7.4-.5,10.8.7,3.4,1.1,6.2,3,8.5,5.6s3.8,5.7,4.4,9.3c.7,3.7.4,7.1-.8,10.3-1.2,3.2-3.2,5.9-6,8.1-2.7,2.2-6,3.7-9.8,4.4-3.9.7-7.6.5-10.9-.6-3.3-1.1-6.1-3-8.4-5.5-2.3-2.6-3.8-5.7-4.4-9.4-.7-3.6-.4-7,.8-10.3,1.2-3.2,3.2-6,5.9-8.2,2.7-2.3,6.1-3.7,10-4.5l-.1.1ZM410.5,672.2c-1.4.3-2.6.8-3.6,1.7-1,.8-1.6,1.9-2,3.1s-.4,2.6-.2,4.1c.3,1.5.8,2.8,1.6,3.8s1.8,1.7,3,2.2c1.2.4,2.5.5,3.9.3,1.3-.2,2.5-.8,3.4-1.6.9-.8,1.6-1.9,2-3.1s.5-2.6.2-4.1-.8-2.7-1.6-3.7-1.8-1.7-3-2.2-2.4-.6-3.8-.3l.1-.2Z"/>
    <path class="cls-1" d="M370.7,664.8c2.2-.1,4.4,0,6.7.5s4.3,1.2,6.2,2.1c1.9,1,3.6,2.1,4.9,3.5l-6.7,7.8c-1.3-1.3-2.8-2.2-4.5-2.8-1.7-.6-3.5-.9-5.4-.8-1.1,0-1.9.3-2.5.6-.6.3-.8.8-.8,1.3,0,.8.5,1.4,1.4,1.8s2,.7,3.3,1,2.7.6,4.2,1,2.9.9,4.3,1.7c1.4.7,2.5,1.8,3.5,3.3.9,1.5,1.4,3.3,1.5,5.6.1,2.4-.4,4.5-1.5,6.4s-2.9,3.4-5.2,4.6c-2.3,1.1-5,1.8-8,2-3.2.2-6.2-.2-9.1-1.1-2.9-.9-5.3-2.4-7.1-4.6l6.8-7.9c1.3,1.4,2.7,2.3,4.1,2.7,1.5.5,2.8.6,4,.6s2-.3,2.4-.7c.5-.4.7-.8.6-1.3,0-.7-.5-1.2-1.3-1.5-.8-.4-1.9-.7-3.2-.9-1.3-.3-2.7-.6-4.2-1s-2.9-1.1-4.2-1.9c-1.4-.8-2.5-1.9-3.4-3.4-.9-1.4-1.4-3.3-1.6-5.6-.2-3.7,1-6.6,3.7-9,2.7-2.3,6.4-3.6,11.1-3.9v-.1Z"/>
    <path class="cls-1" d="M332.4,664.6c4.1.3,7.7,1.4,10.8,3.2s5.3,4.4,6.9,7.4c1.6,3.1,2.2,6.5,2,10.2-.3,3.8-1.3,7.1-3.3,9.9-1.9,2.8-4.5,4.9-7.6,6.4-3.2,1.5-6.6,2.1-10.4,1.9-3.7-.2-6.9-1.3-9.7-3-2.8-1.8-4.9-4.1-6.3-7.1-1.4-2.9-2-6.2-1.8-9.9,0-.7.1-1.5.3-2.2.2-.8.4-1.7.6-2.7l32.3,2-.6,8.5-27.1-1.6,6.1-3.3c0,2,.1,3.8.6,5.2.5,1.4,1.2,2.5,2.2,3.2,1,.8,2.3,1.2,3.9,1.3,1.6.1,3-.2,4.3-.9,1.3-.7,2.3-1.8,3-3.2.7-1.5,1.2-3.2,1.3-5.2.1-2.2,0-4-.7-5.5-.6-1.5-1.5-2.7-2.8-3.5s-2.8-1.3-4.7-1.4c-1.7-.1-3.3,0-4.8.6-1.4.5-2.7,1.3-3.9,2.5l-6.4-7.3c2-2,4.4-3.5,7-4.4s5.6-1.3,8.8-1.1h0Z"/>
    <path class="cls-1" d="M309.1,689.8l-2,10.9-28.8-5.3,2-10.9,28.8,5.3ZM305.9,662.6l-9.5,51.8-12.9-2.4,9.5-51.8,12.9,2.4Z"/>
    <path class="cls-1" d="M135.6,573l-7.1,7.1-7.7,5-5.1,7.7-6.5,6.5-9.1-9.1,26.4-26.3,9.1,9.1h0ZM142.9,579.1c2.4,2.4,4,5.2,4.7,8.2s.5,6.1-.5,9.3c-1,3.1-2.8,6-5.5,8.7-2.6,2.6-5.5,4.4-8.7,5.4-3.1,1-6.3,1.1-9.3.4-3.1-.7-5.8-2.2-8.2-4.6-1.7-1.7-2.9-3.5-3.6-5.4-.8-1.9-1-3.9-.8-5.8s.9-3.7,2.1-5.3l13.3-13.3c1.6-1.2,3.4-1.9,5.3-2.1,1.9-.2,3.9,0,5.8.8,1.9.8,3.7,1.9,5.3,3.5l.1.2ZM132.5,585.5c-1.5-1.5-3.2-2.2-5.2-2.2s-3.7.9-5.3,2.5c-1,1-1.7,2.1-2.1,3.4-.4,1.2-.4,2.5-.2,3.7.3,1.2.9,2.3,1.9,3.3s2.1,1.6,3.3,1.9,2.5.3,3.7-.1c1.3-.4,2.4-1.1,3.4-2.1s1.8-2.2,2.1-3.4c.4-1.2.4-2.5.1-3.7-.3-1.2-.9-2.3-1.9-3.3h.2Z"/>
    <path class="cls-1" d="M108.4,540.4l-16.8,12.7c-1.3,1-2.1,2.2-2.3,3.6-.2,1.4.2,2.7,1.1,3.9.6.8,1.4,1.5,2.2,1.9.8.4,1.7.5,2.7.4.9-.1,1.9-.6,2.7-1.2l1.1,5.5c-2.4,1.8-4.8,2.9-7.4,3.2-2.5.3-4.9-.1-7.3-1.3-2.3-1.1-4.3-2.8-6.1-5.1-1.6-2.1-2.5-4.4-2.8-6.8s0-4.7,1-6.9c.9-2.2,2.4-4.1,4.5-5.7l19.3-14.6,7.9,10.5.2-.1ZM122.7,559.4l-29.7,22.5-7.9-10.5,29.7-22.5,7.9,10.5Z"/>
    <path class="cls-1" d="M89.6,509.3c1.9,3.4,2.9,6.9,2.9,10.4s-.8,6.8-2.6,9.8c-1.7,3-4.2,5.4-7.4,7.2-3.3,1.8-6.6,2.7-10,2.6s-6.6-1.1-9.6-3-5.4-4.5-7.3-7.9c-2-3.5-3-7-3-10.5s.8-6.8,2.5-9.8,4.2-5.4,7.4-7.2c3.2-1.8,6.5-2.6,10-2.6s6.7,1,9.7,2.9,5.5,4.5,7.4,8v.1ZM79.3,515.2c-.7-1.3-1.6-2.2-2.7-2.9-1.1-.6-2.3-.9-3.6-.9s-2.6.4-3.9,1.2c-1.3.7-2.3,1.7-3,2.8s-1,2.3-1.1,3.5c0,1.3.3,2.5,1,3.8.7,1.2,1.5,2.1,2.6,2.7s2.3.9,3.6.9,2.6-.4,3.9-1.1,2.3-1.6,3-2.7,1.1-2.3,1.1-3.6-.3-2.5-.9-3.7h0Z"/>
    <path class="cls-1" d="M75.7,483.7l-48.6,20.3-5.1-12.1,48.6-20.3,5.1,12.1ZM54.6,501.3l-10.2,4.3-11.3-27,10.2-4.3,11.3,27Z"/>
    <path class="cls-1" d="M66.3,461.3l-53.4,15.4-3.6-12.6,53.4-15.4,3.6,12.6ZM59.7,438.4l-20.3,5.8c-1.6.5-2.7,1.3-3.4,2.5-.7,1.2-.8,2.6-.3,4,.3,1,.8,1.9,1.4,2.5.6.7,1.4,1.1,2.4,1.3.9.2,1.9.1,3-.2l-1,5.5c-2.9.8-5.5,1-8,.4-2.4-.6-4.5-1.7-6.2-3.5s-3-4-3.8-6.8-.9-5.4-.4-7.8c.5-2.4,1.7-4.5,3.3-6.2,1.7-1.7,3.8-2.9,6.4-3.7l23.2-6.7,3.6,12.6.1.3Z"/>
    <path class="cls-1" d="M53.2,402.1c.6,4.1.3,7.9-.9,11.2-1.2,3.4-3.1,6.2-5.8,8.3-2.6,2.2-5.8,3.6-9.6,4.1-3.8.6-7.2.2-10.4-1.1-3.1-1.3-5.8-3.3-7.9-6.1s-3.5-6-4.1-9.8c-.5-3.7-.2-7,.9-10.1s3-5.6,5.6-7.7,5.6-3.3,9.2-3.9c.7-.1,1.5-.2,2.2-.2h2.7l4.9,32-8.4,1.3-4.2-26.9,4.5,5.3c-2,.4-3.6.9-4.9,1.6-1.3.7-2.2,1.7-2.7,2.8s-.7,2.5-.4,4.1c.2,1.6.8,2.9,1.8,4s2.2,1.9,3.8,2.3c1.6.4,3.4.5,5.4.2,2.2-.3,3.9-.9,5.3-1.9,1.4-.9,2.3-2.1,2.8-3.5s.7-3,.4-4.9c-.3-1.7-.8-3.2-1.6-4.6-.8-1.3-1.9-2.4-3.3-3.3l5.8-7.9c2.4,1.6,4.3,3.5,5.8,5.9s2.4,5.2,2.9,8.3l.2.5Z"/>
    <path class="cls-1" d="M29,368.4l-4.8,6c-4.3-1.3-7.5-3.1-9.7-5.4s-3.4-5.5-3.5-9.4c0-1.7.1-3.2.5-4.5s1.1-2.4,2-3.3l10.6,7.2c-.5.5-.9,1.1-1.1,1.8-.3.7-.4,1.5-.3,2.5,0,1.7.6,2.9,1.7,3.9,1.1.9,2.6,1.3,4.7,1.3l-.1-.1ZM49.7,380.9l-37.3,1.2-.4-13.1,37.2-1.2.4,13.1h.1Z"/>
    <path class="cls-1" d="M52.5,316.8c-.5,3.9-1.7,7.3-3.8,10.2-2.1,2.9-4.7,5.1-7.8,6.5-3.1,1.4-6.5,2-10.2,1.5-3.7-.4-7-1.7-9.7-3.9-2.7-2.2-4.7-4.9-6.1-8.2-1.3-3.3-1.8-6.9-1.3-10.9.3-2.8,1.1-5.4,2.4-7.6,1.2-2.2,2.9-4.2,5.1-5.9l7.4,9.2c-.9.7-1.5,1.5-2,2.4s-.8,2-1,3.3c-.2,1.4,0,2.7.5,3.9s1.3,2.2,2.3,3,2.3,1.3,3.9,1.5c1.5.2,2.8,0,4.1-.5,1.2-.5,2.3-1.3,3-2.4.8-1,1.3-2.3,1.4-3.7.2-1.4,0-2.6-.3-3.7-.3-1-.9-2-1.7-2.8l9.3-7.3c1.8,2.3,3,4.7,3.8,7.1.8,2.5,1,5.2.6,8.2l.1.1Z"/>
    <path class="cls-1" d="M54.4,298.7L0,287.3l2.7-12.9,54.4,11.4-2.7,12.9Z"/>
    <path class="cls-1" d="M64.5,262.6c-1.2,3.7-3.1,6.8-5.6,9.2-2.6,2.4-5.6,4.1-8.9,4.9-3.4.8-6.8.6-10.3-.5-3.6-1.1-6.5-3-8.8-5.6-2.2-2.6-3.7-5.6-4.4-9.1-.7-3.5-.4-7,.7-10.7,1.2-3.8,3.1-6.9,5.6-9.4,2.6-2.4,5.5-4,8.8-4.9,3.3-.8,6.8-.7,10.4.5,3.5,1.1,6.4,2.9,8.7,5.5,2.3,2.6,3.8,5.6,4.5,9.1s.5,7.1-.7,10.9v.1ZM53.1,259.1c.4-1.4.5-2.7.2-4-.3-1.2-.9-2.3-1.8-3.3s-2.1-1.6-3.5-2.1c-1.5-.5-2.8-.6-4.1-.3-1.3.3-2.4.8-3.3,1.6s-1.6,1.9-2.1,3.3c-.4,1.3-.5,2.5-.2,3.8.3,1.2.9,2.3,1.8,3.3.9.9,2.1,1.6,3.5,2.1,1.4.4,2.7.5,4,.3,1.3-.3,2.4-.8,3.4-1.6s1.6-1.9,2-3.2l.1.1Z"/>
    <path class="cls-1" d="M78.2,227.2c-.9,2-2.1,3.9-3.6,5.7-1.5,1.8-3.1,3.3-4.8,4.5-1.7,1.2-3.5,2.2-5.4,2.8l-3.8-9.6c1.7-.5,3.2-1.4,4.6-2.7,1.3-1.2,2.4-2.7,3.2-4.4.5-1,.7-1.8.6-2.5,0-.6-.3-1.1-.8-1.3-.7-.3-1.5-.2-2.2.4-.7.6-1.5,1.4-2.4,2.5-.8,1-1.8,2.1-2.8,3.3-1,1.1-2.2,2.1-3.5,3-1.3.9-2.8,1.4-4.5,1.5s-3.6-.3-5.7-1.2c-2.2-1-3.8-2.4-5-4.3-1.1-1.9-1.7-4.1-1.6-6.7,0-2.6.7-5.2,2-8,1.3-2.9,3.1-5.4,5.2-7.6,2.1-2.1,4.6-3.5,7.4-4.2l3.8,9.7c-1.8.5-3.2,1.3-4.3,2.4-1.1,1.1-1.9,2.2-2.4,3.3-.5,1-.7,1.9-.5,2.4.1.6.4,1,.9,1.2.6.3,1.3.1,2-.4.7-.6,1.5-1.4,2.3-2.4.9-1.1,1.8-2.1,2.9-3.2,1.1-1.1,2.3-2,3.6-2.9,1.4-.8,2.9-1.3,4.6-1.5,1.7-.1,3.6.3,5.7,1.2,3.3,1.5,5.4,4,6.2,7.4.8,3.4.3,7.3-1.7,11.6h0Z"/>
    <path class="cls-1" d="M96.2,193.4c-2.2,3.5-4.8,6.2-7.9,8.1-3.1,1.8-6.3,2.7-9.8,2.7s-6.8-1-10-3c-3.3-2-5.7-4.5-7.3-7.5-1.6-3-2.3-6.2-2.2-9.7.1-3.5,1.2-6.9,3.2-10.1,1.9-3.2,4.3-5.6,7.2-7.2,2.9-1.6,5.9-2.4,9.2-2.3,3.3,0,6.4,1.1,9.6,3,.6.4,1.2.8,1.8,1.3.6.5,1.3,1.1,2.1,1.8l-16.7,27.7-7.3-4.4,14-23.3v6.9c-1.7-1-3.3-1.6-4.8-1.9-1.5-.2-2.8,0-3.9.4-1.1.5-2.1,1.5-3,2.9-.8,1.4-1.2,2.8-1.2,4.2,0,1.5.5,2.9,1.5,4.2.9,1.3,2.3,2.5,4,3.6,1.9,1.1,3.6,1.8,5.2,2s3.1-.1,4.4-.8c1.3-.7,2.5-1.9,3.4-3.5.9-1.5,1.5-3,1.7-4.5s0-3.1-.4-4.7l9.5-2.3c.8,2.7,1,5.5.6,8.3s-1.5,5.5-3.1,8.3l.2-.2Z"/>
    <path class="cls-1" d="M110.3,170.8l-41.6-32.3,8.1-10.4,41.6,32.3-8.1,10.4h0ZM84.6,161.1l-8.7-6.8,18-23.1,8.7,6.8-18,23.1h0Z"/>
  </g>
  <path class="cls-1" d="M142.6,117.2c11.8-12.5,24.7-33.5,57.2-41.3l2.1,7.8c.3,1.3,1.5,2.3,2.9,2.5.7.1,1.4,0,2,0s1.4-.6,2-1.1l19.6-19.7c1-1,1.3-2.3,1-3.5s-1.3-2.1-2.6-2.5l-26.8-6.9c-.7-.2-1.5-.2-2.3,0s-1.3.5-1.8,1c-1.1,1-1.6,2.4-1.2,3.7l1.9,6.9c-31.1,14.2-27.4,5.3-64.6,46.1l10.6,7.1v-.1Z"/>
  <path class="cls-1" d="M668.7,301.4c4.9,15.4,16.4,35.7,7.4,65.5l-7.6-2.1c-1.3-.3-2.6,0-3.5,1.1-.4.5-.7,1-.9,1.6s-.2,1.4,0,2.1l7.2,25.1c.4,1.2,1.3,2.2,2.4,2.5s2.4,0,3.3-.9l18.6-18.1c.5-.5.9-1.1,1.1-1.8s.2-1.2,0-1.9c-.3-1.3-1.3-2.4-2.5-2.7l-6.7-1.8c2.9-31.6,8.7-24.4-8-73.7l-11,5.1h.2Z"/>
  <path class="cls-1" d="M252.8,666.6c-15.8-3.7-39.5-4.1-59.5-27.7l6.1-5.7c1-.9,1.4-2.4,1.1-3.7-.2-.6-.5-1.2-.9-1.7s-1.1-.9-1.8-1.1l-25.3-6.7c-1.2-.3-2.6,0-3.5.9s-1.4,2.2-1.1,3.5l4.7,26.1c.1.7.5,1.4.9,1.9s1,.8,1.6,1c1.3.4,2.7.1,3.7-.8l5.3-5c25,19.2,15.7,20.5,66.7,31.5l2-12.5h0Z"/>
</svg>