<?xml version="1.0" encoding="UTF-8"?>
<svg id="Capa_1" data-name="Capa 1" xmlns="http://www.w3.org/2000/svg" viewBox="0 0 519.38 94.05">
  <defs>
    <style>
      .cls-1 {
        fill: #f00010;
      }
    </style>
  </defs>
  <path class="cls-1" d="M45.51,69.15c-3.3,0-6.2-.8-8.7-2.4s-4.5-3.8-6-6.5c-1.5-2.8-2.2-5.9-2.2-9.5s.7-6.6,2.2-9.4,3.5-4.9,6-6.5,5.4-2.4,8.6-2.4,4.3.4,6.1,1.2,3.3,1.9,4.5,3.3,1.9,3.1,2.1,4.9v17.7c-.3,1.9-1,3.5-2.2,5-1.2,1.4-2.7,2.6-4.5,3.3-1.8.8-3.8,1.2-6,1.2h.1v.1ZM48.21,58.05c2.1,0,3.7-.7,5-2,1.2-1.3,1.9-3.1,1.9-5.2s-.3-2.6-.9-3.6-1.4-1.9-2.4-2.6c-1-.6-2.2-.9-3.5-.9s-2.5.3-3.6.9c-1,.6-1.8,1.5-2.4,2.6s-.9,2.3-.9,3.6.3,2.6.9,3.7,1.4,1.9,2.4,2.6c1.1.6,2.2.9,3.5.9ZM54.61,68.45v-9.5l1.8-8.5-1.8-8.6v-8.6h12.4v35.2h-12.4Z"/>
  <path class="cls-1" d="M74.21,68.45v-35.2h12.6v35.2h-12.6ZM97.01,68.45v-19.9c0-1.6-.5-2.8-1.4-3.7s-2.1-1.4-3.6-1.4-1.9.2-2.7.6-1.4,1-1.8,1.8-.6,1.7-.6,2.8l-4.8-2.3c0-2.8.6-5.3,1.8-7.3,1.2-2.1,2.9-3.6,5.1-4.8s4.7-1.7,7.4-1.7,4.8.6,6.8,1.8,3.6,2.7,4.7,4.7c1.2,2,1.7,4.2,1.7,6.6v22.8h-12.6Z"/>
  <path class="cls-1" d="M133.51,69.35c-3.7,0-7.1-.8-10.1-2.4s-5.3-3.9-7-6.7c-1.7-2.8-2.6-5.9-2.6-9.4s.9-6.7,2.6-9.5,4-4.9,7-6.6c3-1.6,6.3-2.4,10-2.4s7.2.8,10.2,2.4,5.3,3.8,7,6.6,2.6,5.9,2.6,9.5-.8,6.6-2.5,9.4-4,5-7,6.7-6.4,2.4-10.2,2.4ZM133.41,58.05c1.4,0,2.6-.3,3.7-.9s1.9-1.5,2.4-2.6.9-2.3.9-3.8-.3-2.7-.9-3.8c-.6-1.1-1.4-1.9-2.4-2.5s-2.2-.9-3.6-.9-2.5.3-3.5.9-1.8,1.5-2.4,2.6-.9,2.3-.9,3.8.3,2.6.9,3.7,1.4,1.9,2.4,2.6c1,.6,2.2.9,3.5.9h-.1Z"/>
  <path class="cls-1" d="M155.21,43.65v-10.4h28.1v10.4h-28.1ZM162.91,68.45V18.65h12.6v49.8h-12.6Z"/>
  <path class="cls-1" d="M187.61,68.45V15.95h12.6v52.5h-12.6ZM210.41,68.45v-19.9c0-1.6-.5-2.8-1.4-3.7s-2.1-1.4-3.6-1.4-1.9.2-2.7.6c-.8.4-1.4,1-1.8,1.8s-.6,1.7-.6,2.8l-4.8-2.3c0-2.8.6-5.3,1.7-7.3,1.2-2.1,2.8-3.6,4.9-4.8,2.1-1.1,4.5-1.7,7.2-1.7s5.2.6,7.3,1.7c2.1,1.1,3.7,2.7,4.8,4.6,1.1,2,1.7,4.2,1.7,6.8v22.8h-12.7Z"/>
  <path class="cls-1" d="M247.41,69.35c-4,0-7.5-.8-10.5-2.4s-5.4-3.8-7.1-6.6c-1.7-2.8-2.6-6-2.6-9.5s.8-6.8,2.5-9.5c1.7-2.8,3.9-4.9,6.9-6.6,2.9-1.6,6.2-2.4,9.9-2.4s6.7.8,9.5,2.3,4.9,3.6,6.5,6.3,2.3,5.7,2.3,9.2,0,1.4-.1,2.1c0,.7-.2,1.6-.4,2.6h-31v-7.9h26.1l-5.6,3.3c0-1.9-.3-3.5-.9-4.8-.5-1.3-1.3-2.3-2.3-2.9s-2.3-1-3.8-1-2.9.4-4.1,1.1-2.1,1.8-2.7,3.2c-.6,1.4-.9,3.1-.9,5s.3,3.8,1,5.2,1.6,2.4,2.9,3.1c1.2.7,2.8,1,4.6,1s3.2-.3,4.5-.8c1.3-.6,2.5-1.4,3.6-2.6l6.6,6.5c-1.8,2-4,3.5-6.4,4.6-2.5,1-5.2,1.5-8.3,1.5h-.2Z"/>
  <path class="cls-1" d="M269.41,68.45v-35.2h12.6v35.2h-12.6ZM282.01,49.25l-5.5-4.8c1.3-4,3.2-7,5.5-9s5.3-3,9.1-3,3.1.2,4.3.6c1.2.4,2.3,1.1,3.1,2l-7.3,9.8c-.4-.5-1-.9-1.7-1.1-.7-.3-1.5-.4-2.4-.4-1.6,0-2.8.5-3.7,1.5-.9,1-1.4,2.4-1.4,4.4Z"/>
  <path class="cls-1" d="M332.61,69.15c-3.3,0-6.3-.8-9-2.3-2.7-1.6-4.8-3.7-6.3-6.4-1.5-2.7-2.3-5.7-2.3-9s.8-6.3,2.3-9,3.6-4.8,6.3-6.3c2.7-1.5,5.7-2.3,9-2.3s5,.5,7.2,1.4c2.2,1,4.1,2.3,5.6,4l-3.4,3.5c-1.2-1.3-2.5-2.3-4.1-3s-3.4-1-5.3-1-4.5.6-6.3,1.7c-1.9,1.1-3.3,2.6-4.4,4.5s-1.6,4.1-1.6,6.5.5,4.6,1.6,6.6c1.1,1.9,2.5,3.5,4.4,4.6s4,1.7,6.3,1.7,3.7-.3,5.3-1c1.6-.7,3-1.7,4.2-3l3.4,3.4c-1.6,1.8-3.5,3.1-5.7,4.1s-4.6,1.4-7.2,1.4h0v-.1Z"/>
  <path class="cls-1" d="M352.51,68.45V17.45h5.1v51h-5.1Z"/>
  <path class="cls-1" d="M383.21,69.15c-3.3,0-6.3-.8-8.9-2.4s-4.7-3.7-6.3-6.4c-1.6-2.7-2.3-5.7-2.3-9s.8-6.2,2.3-8.9c1.6-2.6,3.7-4.7,6.3-6.3,2.6-1.6,5.6-2.3,8.9-2.3s6.2.8,8.9,2.3c2.7,1.5,4.8,3.6,6.3,6.3,1.6,2.7,2.3,5.6,2.3,8.9s-.8,6.4-2.3,9c-1.6,2.7-3.7,4.8-6.3,6.4-2.7,1.6-5.6,2.4-8.9,2.4ZM383.21,64.25c2.4,0,4.5-.6,6.3-1.7,1.9-1.1,3.3-2.6,4.4-4.6s1.6-4.2,1.6-6.6-.5-4.5-1.6-6.4-2.5-3.4-4.4-4.5c-1.8-1.1-3.9-1.7-6.3-1.7s-4.5.6-6.3,1.7c-1.9,1.1-3.3,2.6-4.4,4.5s-1.6,4-1.6,6.4.5,4.7,1.6,6.7c1.1,1.9,2.5,3.5,4.4,4.6s4,1.7,6.3,1.7h0v-.1Z"/>
  <path class="cls-1" d="M419.11,69.15c-1.8,0-3.6-.3-5.3-.8-1.7-.5-3.2-1.2-4.6-2.1s-2.6-2-3.6-3.2l3.3-3.3c1.3,1.6,2.9,2.8,4.6,3.6,1.7.8,3.6,1.2,5.7,1.2s3.9-.4,5.2-1.3c1.3-.9,1.9-2.1,1.9-3.6s-.4-2.6-1.3-3.3c-.9-.8-2.1-1.4-3.5-1.9s-3-1-4.5-1.4c-1.6-.5-3.1-1-4.5-1.7s-2.6-1.7-3.5-2.9-1.4-2.9-1.4-4.9.5-3.6,1.4-5c1-1.4,2.3-2.5,4-3.3s3.8-1.2,6.3-1.2,4.8.5,6.9,1.4,3.7,2.3,5,4l-3.3,3.3c-1-1.3-2.2-2.3-3.7-3s-3.2-1.1-5.1-1.1-3.8.4-4.9,1.3c-1.1.8-1.7,1.9-1.7,3.3s.5,2.3,1.4,3.1c.9.7,2.1,1.3,3.5,1.8s2.9.9,4.5,1.4,3.1,1.1,4.5,1.8,2.6,1.8,3.5,3c.9,1.3,1.3,3,1.3,5.1s-1.1,5.4-3.3,7.2c-2.2,1.8-5.1,2.7-8.9,2.7v-.2h.1Z"/>
  <path class="cls-1" d="M454.81,69.15c-3.4,0-6.4-.8-9.1-2.3s-4.8-3.6-6.4-6.3c-1.6-2.7-2.3-5.7-2.3-9.1s.8-6.3,2.3-9,3.6-4.8,6.2-6.3,5.6-2.3,8.9-2.3,5.9.7,8.2,2.1c2.4,1.4,4.2,3.3,5.6,5.8s2.1,5.3,2.1,8.5,0,.8,0,1.3-.1,1.1-.3,1.8h-29.3v-4.3h26.5l-1.8,1.6c0-2.4-.4-4.6-1.3-6.4s-2.2-3.2-3.8-4.2c-1.7-1-3.6-1.5-5.9-1.5s-4.6.5-6.4,1.6-3.3,2.6-4.3,4.5-1.5,4.1-1.5,6.7.5,4.9,1.6,6.8c1.1,2,2.6,3.5,4.5,4.6s4.2,1.7,6.7,1.7,3.9-.4,5.6-1.1,3.2-1.9,4.4-3.3l3.3,3.3c-1.6,1.9-3.6,3.4-5.9,4.4s-4.9,1.5-7.6,1.5h0v-.1Z"/>
  <path class="cls-1" d="M474.71,39.25v-4.6h22.1v4.6h-22.1ZM483.21,68.45V20.35h5.1v48.1h-5.1Z"/>
</svg>