<svg width="90" height="83" viewBox="0 0 90 83" fill="none" xmlns="http://www.w3.org/2000/svg">
<g clip-path="url(#clip0_175_497)">
<path d="M59.7727 21.413C59.4968 16.7473 59.0481 10.6669 58.4242 6.0257C58.3519 5.48698 58.2731 4.93696 58.0061 4.44533C57.7237 3.92734 57.2486 3.50729 56.7736 3.10608C54.8603 1.48616 52.2947 -0.129987 49.7226 0.529281C48.0391 0.960631 46.8833 2.26221 45.9026 3.51482C44.4556 5.36454 43.0918 7.36118 42.805 9.57821C42.6846 10.5068 42.7569 11.4505 42.5555 12.3679C42.1877 14.0386 42.0498 15.9034 41.7871 17.9076" stroke="#754C24" stroke-width="4" stroke-miterlimit="10"/>
<path d="M11.0528 60.3758C14.5006 46.4596 17.9506 32.5264 20.1332 18.4218C24.4216 18.661 28.4998 20.0191 32.5716 21.2039C42.394 24.0576 52.5864 25.9638 62.8992 26.8755C62.7044 29.6218 61.9207 32.3795 62.4242 35.1145C62.7372 36.8173 63.3085 38.5088 63.1903 40.2285C63.1072 41.4397 62.6825 42.6132 62.3804 43.798C61.1216 48.7312 61.9644 53.8547 61.9207 58.9065C61.8506 66.9685 60.281 74.8721 57.954 82.6816C52.9476 79.4719 45.1347 80.7189 39.0622 79.4682C36.6586 78.9728 34.3973 78.0762 32.1534 77.1871C26.6282 74.9927 21.1029 72.8001 15.5777 70.6057C14.0825 70.0124 9.92762 69.1346 9.31905 67.7276C8.65138 66.183 10.6478 62.0032 11.0528 60.3739V60.3758Z" fill="#9BC5EA" stroke="black" stroke-miterlimit="10"/>
<path d="M70.5343 42.7488C70.1271 39.0343 69.9936 35.3029 69.8579 31.5733C69.7484 28.5086 70.022 24.8563 69.9104 21.7916C67.9161 23.2458 65.3899 25.0691 63.5445 26.7437C63.295 26.9697 62.9097 27.1298 62.8112 27.4293C62.6755 27.8437 62.8418 28.5934 62.7586 29.1886C61.9005 35.3876 62.4894 39.4902 62.3777 43.798C62.3165 46.1808 61.651 48.7557 61.5109 51.1366C61.3773 53.429 61.8108 55.7176 61.8392 58.0137C61.8611 59.741 61.6532 61.4626 61.4321 63.1805C60.6265 69.4209 59.1182 76.4845 57.9492 82.6817C60.9526 79.6509 64.4771 75.7801 67.4805 72.7493C68.9253 71.2895 70.3723 69.8316 71.8171 68.3718C72.8394 67.3395 75.4838 65.5501 75.8472 64.2466C76.2062 62.962 74.606 60.4737 74.1747 59.1929C73.5859 57.4486 73.0605 55.6893 72.5964 53.9168C71.6332 50.2362 70.9437 46.5029 70.5321 42.7469L70.5343 42.7488Z" fill="#9BC5EA" stroke="black" stroke-miterlimit="10"/>
<path d="M20.1328 18.4218C30.4193 20.7538 41.3385 23.4775 51.6929 25.5646C53.9849 26.026 56.2944 26.6005 58.6411 26.4574C60.2106 26.3613 61.6905 26.5968 62.8047 27.5273C64.8581 25.3517 67.2551 23.4153 69.9105 21.7917C69.0743 22.3021 64.5034 21.1757 63.4198 21.0401C61.2592 20.7688 59.103 20.4769 56.9489 20.1661C52.5598 19.5294 48.1882 18.808 43.8363 18.0037C39.4844 17.1994 35.2353 15.894 30.9272 15.3459C27.5604 14.9164 23.5062 17.5723 20.1328 18.4237V18.4218Z" fill="#6C89A1" stroke="black" stroke-miterlimit="10"/>
<path d="M52.0187 32.4869C51.165 31.8615 49.6567 32.1309 49.162 32.9955C48.6672 33.86 49.3393 35.0524 50.4338 35.2539C51.5306 35.4555 52.7083 34.6041 52.6689 33.6397C52.6492 33.1913 52.415 32.7751 52.2924 32.34C52.1194 31.7202 52.1763 31.0723 52.2311 30.4375C52.7149 24.6887 52.7346 18.9116 52.2836 13.159C52.1566 11.5184 51.9837 9.86079 51.3489 8.31057C49.9807 4.97279 45.9309 2.31311 41.8832 2.93847C39.2892 3.3378 37.1242 4.9709 35.7626 6.91292C34.4009 8.85494 33.7355 11.0908 33.1772 13.3059C31.982 18.0508 31.1961 22.8729 30.8327 27.7175C30.0381 27.3483 28.9282 27.9097 28.8188 28.682C28.7093 29.4542 29.4996 30.1983 30.4015 30.2717C31.4172 30.3546 32.422 29.6125 32.4811 28.7366C32.5402 27.8607 31.6427 27.0244 30.6226 27.0036" stroke="#754C24" stroke-width="4" stroke-miterlimit="10"/>
<path d="M8.99219 12.415C25.8941 29.3827 42.8049 46.3616 60.8298 62.4516C63.2203 64.5838 64.93 67.2473 67.5 69.2175C70.4946 71.5137 72.4364 73.2749 75.7375 76.801" stroke="#C1272D" stroke-width="5" stroke-miterlimit="10"/>
<path d="M0.330078 71.5118C29.0925 52.6699 58.9342 35.0467 89.7128 18.7327" stroke="#C1272D" stroke-width="5" stroke-miterlimit="10"/>
</g>
<defs>
<clipPath id="clip0_175_497">
<rect width="90" height="83" fill="white"/>
</clipPath>
</defs>
</svg>
