<svg width="82" height="81" viewBox="0 0 82 81" fill="none" xmlns="http://www.w3.org/2000/svg">
<g clip-path="url(#clip0_175_554)">
<path d="M39.8416 21.0042C38.5749 21.9784 38.0135 23.4789 38.644 24.87C37.0808 24.7918 35.6125 24.9507 34.0464 24.8752C33.7786 24.0103 32.8948 22.7964 32.0254 22.3614C33.3814 22.6896 34.8726 23.0282 36.243 22.7547C37.6134 22.4812 39.0614 21.8846 39.0787 20.6134" fill="#666666"/>
<path d="M39.8416 21.0042C38.5749 21.9784 38.0135 23.4789 38.644 24.87C37.0808 24.7918 35.6125 24.9507 34.0464 24.8752C33.7786 24.0103 32.8948 22.7964 32.0254 22.3614C33.3814 22.6896 34.8726 23.0282 36.243 22.7547C37.6134 22.4812 39.0614 21.8846 39.0787 20.6134" stroke="black" stroke-miterlimit="10"/>
<path d="M29.6376 16.0885C30.8266 13.83 34.1028 12.6395 36.6305 13.6476C38.3348 14.3275 39.5036 15.7942 40.3011 17.3181C40.6293 17.9433 40.9143 18.6154 40.8538 19.3057C40.7271 20.7801 39.115 21.7726 37.5632 22.2363C32.8907 23.6352 26.7932 21.4809 29.6376 16.0885Z" fill="#E6E6E6" stroke="black" stroke-miterlimit="10"/>
<path d="M81.8228 9.12697L64.1934 5.03412L52.7637 45.3435L70.3932 49.4363L81.8228 9.12697Z" fill="#3A563A" stroke="black" stroke-miterlimit="10"/>
<path d="M75.1388 11.0895C74.7905 11.5949 74.4393 12.1107 74.2896 12.689C74.1398 13.2673 74.2291 13.9316 74.6811 14.364C75.2281 14.8902 76.1205 14.9371 76.9209 14.9475C75.2396 24.0025 72.2772 32.8178 69.263 41.5863C68.9233 42.5788 68.5778 43.5973 68.644 44.6341C68.2093 43.9334 67.2564 43.4853 66.3985 43.6937C65.5405 43.9021 64.9561 44.8477 65.3275 45.5771C63.318 44.8373 61.2826 44.0897 59.1321 43.8162C60.0073 43.4853 60.0965 42.2584 59.4315 41.6436C58.7665 41.0288 57.6725 40.9611 56.7656 41.2164C57.1802 40.1952 57.471 39.1376 57.7589 38.0799C58.3174 36.0428 58.873 34.0083 59.4315 31.9712C60.324 28.7071 61.2193 25.4379 62.3421 22.2337C62.8315 20.84 63.3641 19.4542 63.6491 18.0162C64.0147 16.1693 63.9773 14.2259 64.7863 12.4988C65.339 13.4158 66.9052 13.4548 67.812 12.8062C68.9348 12.0038 69.0298 10.7769 69.4012 9.64893C69.9683 9.76615 74.8538 11.4985 75.1331 11.0895H75.1388Z" fill="#217941" stroke="black" stroke-miterlimit="10"/>
<path d="M67.7694 24.0442C67.1159 24.0233 66.4624 24.362 66.1515 24.883C66.0248 25.0966 65.95 25.3337 65.8809 25.5681C65.7801 25.9068 65.6793 26.2558 65.711 26.6049C65.7974 27.5531 66.972 28.2591 67.994 28.0351C70.0927 27.574 70.0812 24.1119 67.7694 24.0442Z" fill="#3A563A" stroke="black" stroke-miterlimit="10"/>
<path d="M70.9088 4.25441L53.2793 0.16156L41.8497 40.4709L59.4791 44.5637L70.9088 4.25441Z" fill="#3A563A" stroke="black" stroke-miterlimit="10"/>
<path d="M64.2248 6.21816C63.8764 6.72353 63.5252 7.23932 63.3755 7.81763C63.2258 8.39594 63.315 9.06021 63.767 9.49264C64.314 10.0189 65.2065 10.0657 66.0068 10.0762C64.3255 19.1312 61.3631 27.9465 58.3489 36.7149C58.0092 37.7074 57.6637 38.726 57.7299 39.7628C57.2952 39.062 56.3423 38.614 55.4844 38.8224C54.6265 39.0308 54.0421 39.9764 54.4134 40.7058C52.404 39.966 50.3686 39.2183 48.218 38.9448C49.0932 38.614 49.1825 37.387 48.5174 36.7722C47.8524 36.1575 46.7584 36.0897 45.8516 36.345C46.2661 35.3239 46.5569 34.2662 46.8448 33.2086C47.4033 31.1715 47.9589 29.137 48.5174 27.0999C49.4099 23.8358 50.3052 20.5665 51.428 17.3624C51.9174 15.9687 52.45 14.5828 52.735 13.1449C53.1007 11.2979 53.0632 9.35458 53.8722 7.62746C54.425 8.54442 55.9911 8.5835 56.8979 7.93485C58.0207 7.13251 58.1157 5.90555 58.4871 4.77759C59.0542 4.89481 63.9398 6.62714 64.219 6.21816H64.2248Z" fill="#217941" stroke="black" stroke-miterlimit="10"/>
<path d="M56.8554 19.1728C56.2019 19.152 55.5483 19.4907 55.2374 20.0117C55.1107 20.2253 55.0359 20.4623 54.9668 20.6968C54.866 21.0354 54.7653 21.3845 54.7969 21.7336C54.8833 22.6818 56.0579 23.3877 57.0799 23.1637C59.1786 22.7026 59.1671 19.2406 56.8554 19.1728Z" fill="#3A563A" stroke="black" stroke-miterlimit="10"/>
<path d="M57.0698 3.74525L38.9492 2.20398L34.6451 43.6363L52.7657 45.1776L57.0698 3.74525Z" fill="#3A563A" stroke="black" stroke-miterlimit="10"/>
<path d="M50.8091 6.63496C50.5529 7.18201 50.2938 7.74209 50.2477 8.33603C50.2017 8.92997 50.4032 9.5708 50.9243 9.9355C51.5576 10.3784 52.4443 10.2976 53.236 10.196C53.1439 19.3786 51.7419 28.504 50.288 37.5902C50.1239 38.6192 49.9598 39.6742 50.2045 40.6876C49.6547 40.0572 48.6355 39.7498 47.8237 40.078C47.0118 40.4062 46.6002 41.4222 47.0924 42.0891C44.9793 41.6436 42.8403 41.1956 40.6696 41.2268C41.4786 40.7761 41.3519 39.5518 40.589 39.0386C39.8261 38.5254 38.735 38.614 37.8828 38.9943C38.116 37.9263 38.2196 36.84 38.3204 35.7563C38.5191 33.6671 38.7148 31.5753 38.9135 29.4861C39.2301 26.136 39.5468 22.7808 40.1025 19.4542C40.3443 18.0084 40.6293 16.5652 40.661 15.1038C40.7013 13.2282 40.327 11.3162 40.8279 9.49265C41.5333 10.321 43.085 10.1361 43.8709 9.36761C44.8411 8.41678 44.7231 7.18983 44.893 6.02539C45.4716 6.05926 50.5961 7.07781 50.8034 6.63496H50.8091Z" fill="#217941" stroke="black" stroke-miterlimit="10"/>
<path d="M45.775 20.4753C45.1243 20.5483 44.5399 20.9755 44.3211 21.5356C44.2319 21.7648 44.2002 22.0097 44.1714 22.2493C44.1311 22.5984 44.0908 22.9579 44.1829 23.2992C44.4334 24.2239 45.7145 24.7528 46.6847 24.388C48.6769 23.6352 48.0666 20.2174 45.7721 20.4779L45.775 20.4753Z" fill="#3A563A" stroke="black" stroke-miterlimit="10"/>
<path d="M73.6691 47.8982C69.5234 43.8996 68.3344 38.5306 67.2174 33.2425C66.9583 32.0155 66.6244 30.6219 65.4239 30.0045C64.7675 29.6658 63.8635 29.0849 63.1092 29.0693C47.4969 28.7462 31.9825 29.4861 16.3845 30.1738C15.3222 30.2207 14.5881 30.6271 13.7446 31.2106C12.3396 32.1796 11.0528 33.6463 10.9635 35.2457C10.6843 40.177 9.12966 44.866 6.24499 49.0601C3.677 52.7957 0.636875 56.5416 0.199281 60.9233C-0.396654 66.907 3.97929 72.2602 8.11916 76.9571C9.0289 77.9886 9.96454 79.0437 11.2111 79.7314C13.186 80.8255 15.6389 80.8541 17.9564 80.8515C29.3195 80.8307 40.6825 80.8099 52.0456 80.7916C60.5959 80.776 67.1052 81.9821 73.0847 75.6936C76.4702 72.1326 78.7619 67.6989 79.4614 63.0333C79.6716 61.6344 79.7436 60.1939 79.3549 58.8262C78.8655 57.1069 77.688 55.6273 76.6056 54.145C74.242 50.9044 73.4675 49.1643 73.5597 45.4183C73.6662 41.1669 73.5856 36.9025 73.6 32.6485C73.6057 30.687 73.5568 28.5691 72.2498 27.0035C70.4677 24.8726 67.1052 24.5913 64.1543 24.5496C49.4171 24.3542 34.6397 25.6749 19.9601 24.4845C16.825 24.2318 13.4509 23.9062 10.7246 25.3285C8.37251 26.5554 6.95608 28.913 6.40909 31.32C5.8621 33.727 6.07514 36.2148 6.28818 38.6635C6.53576 41.4925 6.78335 44.3242 7.03093 47.1532C11.6717 42.881 8.55676 33.6853 14.3866 30.8485C17.0726 29.5408 20.5042 29.9706 23.8351 29.8846C34.2885 29.6085 44.2495 29.2464 55.149 28.9937C58.6469 28.913 64.0449 28.0299 65.8903 30.3171C67.7356 32.6043 67.6637 35.8188 68.3028 38.5723C69.1118 42.0474 70.9888 45.3115 73.6719 47.9008" fill="#C7B299"/>
<path d="M73.6691 47.8982C69.5234 43.8996 68.3344 38.5306 67.2174 33.2425C66.9583 32.0155 66.6244 30.6219 65.4239 30.0045C64.7675 29.6658 63.8635 29.0849 63.1092 29.0693C47.4969 28.7462 31.9825 29.4861 16.3845 30.1738C15.3222 30.2207 14.5881 30.6271 13.7446 31.2106C12.3396 32.1796 11.0528 33.6463 10.9635 35.2457C10.6843 40.177 9.12966 44.866 6.24499 49.0601C3.677 52.7957 0.636875 56.5416 0.199281 60.9233C-0.396654 66.907 3.97929 72.2602 8.11916 76.9571C9.0289 77.9886 9.96454 79.0437 11.2111 79.7314C13.186 80.8255 15.6389 80.8541 17.9564 80.8515C29.3195 80.8307 40.6825 80.8099 52.0456 80.7916C60.5959 80.776 67.1052 81.9821 73.0847 75.6936C76.4702 72.1326 78.7619 67.6989 79.4614 63.0333C79.6716 61.6344 79.7436 60.1939 79.3549 58.8262C78.8655 57.1069 77.688 55.6273 76.6056 54.145C74.242 50.9044 73.4675 49.1643 73.5597 45.4183C73.6662 41.1669 73.5856 36.9025 73.6 32.6485C73.6057 30.687 73.5568 28.5691 72.2498 27.0035C70.4677 24.8726 67.1052 24.5913 64.1543 24.5496C49.4171 24.3542 34.6397 25.6749 19.9601 24.4845C16.825 24.2318 13.4509 23.9062 10.7246 25.3285C8.37251 26.5554 6.95608 28.913 6.40909 31.32C5.8621 33.727 6.07514 36.2148 6.28818 38.6635C6.53576 41.4925 6.78335 44.3242 7.03093 47.1532C11.6717 42.881 8.55676 33.6853 14.3866 30.8485C17.0726 29.5408 20.5042 29.9706 23.8351 29.8846C34.2885 29.6085 44.2495 29.2464 55.149 28.9937C58.6469 28.913 64.0449 28.0299 65.8903 30.3171C67.7356 32.6043 67.6637 35.8188 68.3028 38.5723C69.1118 42.0474 70.9888 45.3115 73.6719 47.9008" stroke="black" stroke-miterlimit="10"/>
<path d="M47.176 21.447C47.2681 20.642 46.5541 19.9022 45.7192 19.6105C44.8844 19.3187 43.9573 19.363 43.0649 19.4151C42.2415 21.1761 41.421 22.9397 40.5977 24.7006C42.5467 24.6303 44.3748 24.9429 46.3065 24.7006C46.4073 23.8384 46.6261 22.5098 46.7269 21.6476" fill="#808080"/>
<path d="M47.176 21.447C47.2681 20.642 46.5541 19.9022 45.7192 19.6105C44.8844 19.3187 43.9573 19.363 43.0649 19.4151C42.2415 21.1761 41.421 22.9397 40.5977 24.7006C42.5467 24.6303 44.3748 24.9429 46.3065 24.7006C46.4073 23.8384 46.6261 22.5098 46.7269 21.6476" stroke="black" stroke-miterlimit="10"/>
<path d="M50.9014 19.587C51.1576 17.8469 50.2133 16.112 48.8919 14.8277C48.1491 14.1061 47.2308 13.4679 46.154 13.3116C44.2655 13.0381 42.564 14.2807 41.1447 15.4399C40.7762 15.7395 40.3962 16.0599 40.2379 16.4845C40.1342 16.7684 40.14 17.0758 40.1544 17.3728C40.2465 19.1286 40.6352 20.8713 41.3031 22.5203C41.7493 22.4838 42.0602 22.0931 42.184 21.7023C42.3078 21.3116 42.3078 20.8948 42.4546 20.5144C42.9095 19.3344 44.775 18.941 45.9036 19.6626C47.1098 20.4311 46.5657 22.3952 47.7288 22.6922C49.2604 23.0856 50.7517 20.5796 50.8985 19.587H50.9014Z" fill="#E6E6E6" stroke="black" stroke-miterlimit="10"/>
<path d="M26.8957 38.3326C26.0694 39.3173 25.272 40.724 26.1213 41.6931C26.6798 42.3313 27.7709 42.4225 28.5885 42.0838C29.8034 41.5811 30.4483 40.3932 31.001 39.2913C32.0086 37.2802 34.8991 33.193 34.1678 31.036C31.3551 32.7996 28.9627 35.8631 26.8986 38.3326H26.8957Z" fill="#E6E6E6" stroke="black" stroke-miterlimit="10"/>
<path d="M37.7791 45.0144C37.7532 45.7491 37.7648 46.554 38.283 47.1167C39.138 48.0441 40.9316 47.7028 41.7434 46.7468C42.5553 45.7907 42.6416 44.4934 42.61 43.2847C42.5265 40.1952 42.1493 34.8784 39.7483 32.5495C37.5805 35.1597 37.8972 41.7113 37.7791 45.0144Z" fill="#E6E6E6" stroke="black" stroke-miterlimit="10"/>
<path d="M46.2389 33.0236C47.2004 34.7768 47.4307 36.7827 48.2541 38.5931C49.0775 40.4036 50.8422 42.1307 53.0014 42.0161C53.8219 41.0418 53.891 39.6742 53.4764 38.5072C53.0619 37.3401 52.227 36.3372 51.3547 35.3994C50.1859 34.1464 43.6478 28.2982 46.2389 33.0236Z" fill="#E6E6E6" stroke="black" stroke-miterlimit="10"/>
<path d="M37.5325 54.0434C35.7303 51.8292 32.7075 50.0473 29.771 50.7507C27.275 51.3472 25.5851 53.6787 25.4584 56.0102C25.3317 58.3417 26.5322 60.608 28.2279 62.369C29.9236 64.13 32.0856 65.4611 34.2391 66.7506C35.4597 67.4826 36.7207 68.2381 37.5124 69.353C37.7945 69.7516 38.0104 70.1866 38.2235 70.6164C39.0238 72.2368 39.8241 73.8571 40.6245 75.4774C42.7721 68.0479 51.3513 63.4709 54.3742 56.2993C54.9643 54.8979 55.2551 53.1369 54.1122 52.0506C53.6343 51.5947 52.9721 51.3368 52.3215 51.118C50.4905 50.4954 48.4954 50.0604 46.5867 50.4485C44.4822 50.8757 42.7405 52.2694 41.563 53.9053C40.7511 55.0307 40.2646 56.2967 39.6169 57.4768C38.7762 56.4713 38.3991 55.1089 37.5296 54.0434H37.5325Z" fill="#C1272D" stroke="black" stroke-miterlimit="10"/>
</g>
<defs>
<clipPath id="clip0_175_554">
<rect width="82" height="81" fill="white"/>
</clipPath>
</defs>
</svg>
